<svg width="158" height="17" viewBox="0 0 158 17" fill="none" xmlns="http://www.w3.org/2000/svg">
<path d="M8.80078 17C10.9648 17 12.8477 16.2734 14.4492 14.8203C14.7305 14.5625 14.8789 14.2422 14.8945 13.8594C14.9102 13.4766 14.7891 13.1445 14.5312 12.8633C14.2734 12.5742 13.9531 12.4219 13.5703 12.4062C13.1875 12.3906 12.8555 12.5117 12.5742 12.7695C11.5117 13.7383 10.2539 14.2227 8.80078 14.2227C7.26172 14.2227 5.94531 13.6758 4.85156 12.582C3.75781 11.4883 3.21094 10.1719 3.21094 8.63281C3.21094 7.08594 3.75781 5.76562 4.85156 4.67188C5.94531 3.57812 7.26172 3.03125 8.80078 3.03125C10.0742 3.03125 11.2109 3.41797 12.2109 4.19141C12.5156 4.41797 12.8594 4.50781 13.2422 4.46094C13.6172 4.41406 13.9219 4.23828 14.1562 3.93359C14.3906 3.62891 14.4844 3.28516 14.4375 2.90234C14.3828 2.52734 14.207 2.22266 13.9102 1.98828C12.4023 0.832031 10.6992 0.253906 8.80078 0.253906C6.49609 0.253906 4.52344 1.07422 2.88281 2.71484C1.25 4.34766 0.433594 6.32031 0.433594 8.63281C0.433594 10.9375 1.25 12.9102 2.88281 14.5508C4.52344 16.1836 6.49609 17 8.80078 17ZM25.7461 2.9375C27.3008 2.9375 28.6328 3.48828 29.7422 4.58984C30.8438 5.69922 31.3945 7.03125 31.3945 8.58594C31.3945 10.1406 30.8438 11.4688 29.7422 12.5703C28.6328 13.6797 27.3008 14.2344 25.7461 14.2344C24.1914 14.2344 22.8633 13.6797 21.7617 12.5703C20.6523 11.4688 20.0977 10.1406 20.0977 8.58594C20.0977 7.03125 20.6523 5.69922 21.7617 4.58984C22.8633 3.48828 24.1914 2.9375 25.7461 2.9375ZM25.7461 17C28.0664 17 30.0508 16.1758 31.6992 14.5273C33.3398 12.8867 34.1602 10.9062 34.1602 8.58594C34.1602 6.26562 33.3398 4.28125 31.6992 2.63281C30.0508 0.992188 28.0664 0.171875 25.7461 0.171875C23.4258 0.171875 21.4453 0.992188 19.8047 2.63281C18.1562 4.28125 17.332 6.26562 17.332 8.58594C17.332 10.9062 18.1562 12.8867 19.8047 14.5273C21.4453 16.1758 23.4258 17 25.7461 17ZM48.7852 11.9961C48.8398 10.8086 48.4492 9.77344 47.6133 8.89062C46.5977 7.8125 45.1328 7.25781 43.2188 7.22656H43.1602C42.0195 7.21094 41.207 6.94922 40.7227 6.44141C40.418 6.11328 40.2734 5.74609 40.2891 5.33984C40.3203 4.67578 40.5977 4.11328 41.1211 3.65234C41.6523 3.19141 42.2852 2.96094 43.0195 2.96094C43.7383 2.96094 44.375 3.08984 44.9297 3.34766C45.5625 3.64453 45.9492 4.05469 46.0898 4.57812C46.1836 4.94531 46.3945 5.22656 46.7227 5.42188C47.0508 5.60938 47.3984 5.65625 47.7656 5.5625C48.1328 5.46875 48.4102 5.25781 48.5977 4.92969C48.793 4.60156 48.8438 4.25391 48.75 3.88672C48.4219 2.63672 47.6523 1.68359 46.4414 1.02734C45.4336 0.480469 44.293 0.207031 43.0195 0.207031C41.543 0.207031 40.2773 0.691406 39.2227 1.66016C38.168 2.62891 37.6094 3.81641 37.5469 5.22266C37.4922 6.40234 37.8828 7.4375 38.7188 8.32812C39.7344 9.39844 41.1992 9.94922 43.1133 9.98047C43.1211 9.98047 43.1289 9.98047 43.1367 9.98047C43.1211 9.98047 43.1289 9.98047 43.1602 9.98047H43.1719C44.3125 9.99609 45.125 10.2617 45.6094 10.7773C45.9141 11.0977 46.0586 11.4609 46.043 11.8672C46.0117 12.5391 45.7305 13.1016 45.1992 13.5547C44.6758 14.0156 44.0469 14.2461 43.3125 14.2461C42.5938 14.2461 41.9531 14.1172 41.3906 13.8594C40.7656 13.5625 40.3828 13.1523 40.2422 12.6289C40.1484 12.2617 39.9375 11.9805 39.6094 11.7852C39.2812 11.5977 38.9336 11.5508 38.5664 11.6445C38.1992 11.7383 37.918 11.9492 37.7227 12.2773C37.5352 12.6055 37.4883 12.9531 37.582 13.3203C37.9102 14.5703 38.6797 15.5234 39.8906 16.1797C40.8984 16.7266 42.0391 17 43.3125 17C44.7812 17 46.0469 16.5156 47.1094 15.5469C48.1641 14.5781 48.7227 13.3945 48.7852 11.9961ZM68.8594 0.195312C68.5547 0.117187 68.2578 0.132813 67.9688 0.242188C67.6797 0.359375 67.457 0.550781 67.3008 0.816406L61.5352 10.3438L55.7695 0.816406C55.6055 0.550781 55.3789 0.359375 55.0898 0.242188C54.8008 0.132813 54.5078 0.117187 54.2109 0.195312C53.9062 0.28125 53.6602 0.449219 53.4727 0.699219C53.2852 0.941406 53.1914 1.21875 53.1914 1.53125V15.6172C53.1914 16 53.3281 16.3242 53.6016 16.5898C53.8672 16.8633 54.1914 17 54.5742 17C54.957 17 55.2852 16.8633 55.5586 16.5898C55.832 16.3242 55.9688 16 55.9688 15.6172V6.5L60.3281 13.7188C60.3359 13.7188 60.3398 13.7227 60.3398 13.7305V13.7422C60.3477 13.7422 60.3516 13.7461 60.3516 13.7539C60.3594 13.7617 60.3633 13.7656 60.3633 13.7656C60.3867 13.8047 60.4062 13.832 60.4219 13.8477C60.4219 13.8555 60.4297 13.8711 60.4453 13.8945C60.4766 13.918 60.4961 13.9375 60.5039 13.9531C60.5117 13.9609 60.5273 13.9766 60.5508 14C60.5742 14.0234 60.5898 14.0391 60.5977 14.0469C60.6133 14.0625 60.6367 14.082 60.668 14.1055C60.6914 14.1289 60.7031 14.1367 60.7031 14.1289C60.7266 14.1523 60.7539 14.1719 60.7852 14.1875C60.793 14.1953 60.7969 14.1992 60.7969 14.1992C60.8047 14.207 60.8086 14.2109 60.8086 14.2109H60.8203C60.8438 14.2266 60.875 14.2422 60.9141 14.2578C60.9375 14.2734 60.9453 14.2812 60.9375 14.2812C60.9531 14.2891 60.9805 14.3008 61.0195 14.3164C61.0664 14.332 61.082 14.3359 61.0664 14.3281C61.0586 14.3281 61.0742 14.332 61.1133 14.3398C61.2148 14.3711 61.3164 14.3906 61.418 14.3984C61.4648 14.4062 61.4805 14.4102 61.4648 14.4102H61.4883C61.6836 14.418 61.8711 14.3828 62.0508 14.3047C62.0898 14.2891 62.1133 14.2812 62.1211 14.2812C62.1133 14.2812 62.125 14.2734 62.1562 14.2578C62.1953 14.2422 62.2227 14.2266 62.2383 14.2109C62.2461 14.2109 62.25 14.2109 62.25 14.2109C62.25 14.2109 62.2539 14.207 62.2617 14.1992C62.2695 14.1992 62.2734 14.1953 62.2734 14.1875C62.3047 14.1719 62.332 14.1562 62.3555 14.1406C62.3555 14.1406 62.3672 14.1289 62.3906 14.1055C62.4219 14.082 62.4453 14.0625 62.4609 14.0469C62.4688 14.0391 62.4844 14.0234 62.5078 14C62.5312 13.9766 62.5469 13.9609 62.5547 13.9531C62.5625 13.9453 62.582 13.9258 62.6133 13.8945L62.6484 13.8477C62.6562 13.832 62.6719 13.8047 62.6953 13.7656C62.6953 13.7656 62.6992 13.7617 62.707 13.7539C62.7148 13.7461 62.7188 13.7422 62.7188 13.7422L62.7305 13.7305C62.7305 13.7227 62.7305 13.7188 62.7305 13.7188L67.1016 6.5V15.6172C67.1016 16 67.2344 16.3242 67.5 16.5898C67.7734 16.8633 68.1016 17 68.4844 17C68.8672 17 69.1953 16.8633 69.4688 16.5898C69.7344 16.3242 69.8672 16 69.8672 15.6172V1.53125C69.8672 1.21875 69.7734 0.941406 69.5859 0.699219C69.3984 0.449219 69.1562 0.28125 68.8594 0.195312ZM82.3008 2.9375C83.8555 2.9375 85.1875 3.48828 86.2969 4.58984C87.3984 5.69922 87.9492 7.03125 87.9492 8.58594C87.9492 10.1406 87.3984 11.4688 86.2969 12.5703C85.1875 13.6797 83.8555 14.2344 82.3008 14.2344C80.7461 14.2344 79.418 13.6797 78.3164 12.5703C77.207 11.4688 76.6523 10.1406 76.6523 8.58594C76.6523 7.03125 77.207 5.69922 78.3164 4.58984C79.418 3.48828 80.7461 2.9375 82.3008 2.9375ZM82.3008 17C84.6211 17 86.6055 16.1758 88.2539 14.5273C89.8945 12.8867 90.7148 10.9062 90.7148 8.58594C90.7148 6.26562 89.8945 4.28125 88.2539 2.63281C86.6055 0.992188 84.6211 0.171875 82.3008 0.171875C79.9805 0.171875 78 0.992188 76.3594 2.63281C74.7109 4.28125 73.8867 6.26562 73.8867 8.58594C73.8867 10.9062 74.7109 12.8867 76.3594 14.5273C78 16.1758 79.9805 17 82.3008 17ZM105.234 16.4727C105.258 16.5039 105.285 16.5352 105.316 16.5664C105.316 16.5742 105.316 16.5781 105.316 16.5781C105.324 16.5859 105.328 16.5898 105.328 16.5898C105.359 16.6211 105.395 16.6523 105.434 16.6836C105.441 16.6914 105.457 16.7031 105.48 16.7188C105.512 16.7422 105.539 16.7617 105.562 16.7773C105.57 16.7852 105.586 16.7969 105.609 16.8125C105.633 16.8203 105.66 16.832 105.691 16.8477C105.707 16.8633 105.723 16.8711 105.738 16.8711C105.762 16.8867 105.793 16.8984 105.832 16.9062C105.855 16.9219 105.871 16.9297 105.879 16.9297C105.902 16.9375 105.934 16.9453 105.973 16.9531C106.012 16.9688 106.027 16.9727 106.02 16.9648C106.051 16.9727 106.09 16.9805 106.137 16.9883C106.168 16.9961 106.176 16.9961 106.16 16.9883C106.215 16.9961 106.266 17 106.312 17C106.375 17 106.441 16.9961 106.512 16.9883C106.535 16.9805 106.547 16.9766 106.547 16.9766C106.617 16.9688 106.684 16.9531 106.746 16.9297C106.73 16.9375 106.738 16.9336 106.77 16.918C106.832 16.8945 106.895 16.8672 106.957 16.8359C106.957 16.8359 106.961 16.8359 106.969 16.8359C107.023 16.8047 107.082 16.7656 107.145 16.7188C107.152 16.7109 107.156 16.707 107.156 16.707C107.188 16.6836 107.191 16.6797 107.168 16.6953C107.184 16.6875 107.203 16.6719 107.227 16.6484C107.258 16.625 107.273 16.6094 107.273 16.6016C107.281 16.6016 107.297 16.5859 107.32 16.5547C107.344 16.5312 107.359 16.5156 107.367 16.5078C107.367 16.5078 107.379 16.4922 107.402 16.4609C107.426 16.4297 107.441 16.4062 107.449 16.3906L107.484 16.3555C107.5 16.3242 107.512 16.3008 107.52 16.2852C107.52 16.2852 107.531 16.2656 107.555 16.2266C107.57 16.1875 107.578 16.168 107.578 16.168C107.586 16.1523 107.594 16.1289 107.602 16.0977C107.617 16.0664 107.625 16.0469 107.625 16.0391C107.633 16.0312 107.641 16.0078 107.648 15.9688C107.656 15.9297 107.66 15.9102 107.66 15.9102C107.668 15.8945 107.672 15.8711 107.672 15.8398C107.68 15.8086 107.684 15.7852 107.684 15.7695C107.684 15.7617 107.684 15.7422 107.684 15.7109C107.691 15.6797 107.695 15.6562 107.695 15.6406V1.57812C107.695 1.19531 107.559 0.871094 107.285 0.605469C107.02 0.332031 106.695 0.195312 106.312 0.195312C105.93 0.195312 105.602 0.332031 105.328 0.605469C105.062 0.871094 104.93 1.19531 104.93 1.57812V11.5859L96.5039 0.734375C96.3242 0.5 96.0938 0.339844 95.8125 0.253906C95.5234 0.167969 95.2422 0.175781 94.9688 0.277344C94.6875 0.371094 94.4609 0.539062 94.2891 0.78125C94.1172 1.01562 94.0312 1.28125 94.0312 1.57812V15.6172C94.0312 16 94.168 16.3242 94.4414 16.5898C94.707 16.8633 95.0312 17 95.4141 17C95.7969 17 96.1211 16.8633 96.3867 16.5898C96.6602 16.3242 96.7969 16 96.7969 15.6172V5.62109L105.223 16.4609C105.223 16.4688 105.223 16.4727 105.223 16.4727C105.223 16.4727 105.227 16.4727 105.234 16.4727ZM119.777 2.9375C121.332 2.9375 122.664 3.48828 123.773 4.58984C124.875 5.69922 125.426 7.03125 125.426 8.58594C125.426 10.1406 124.875 11.4688 123.773 12.5703C122.664 13.6797 121.332 14.2344 119.777 14.2344C118.223 14.2344 116.895 13.6797 115.793 12.5703C114.684 11.4688 114.129 10.1406 114.129 8.58594C114.129 7.03125 114.684 5.69922 115.793 4.58984C116.895 3.48828 118.223 2.9375 119.777 2.9375ZM119.777 17C122.098 17 124.082 16.1758 125.73 14.5273C127.371 12.8867 128.191 10.9062 128.191 8.58594C128.191 6.26562 127.371 4.28125 125.73 2.63281C124.082 0.992188 122.098 0.171875 119.777 0.171875C117.457 0.171875 115.477 0.992188 113.836 2.63281C112.188 4.28125 111.363 6.26562 111.363 8.58594C111.363 10.9062 112.188 12.8867 113.836 14.5273C115.477 16.1758 117.457 17 119.777 17ZM135.574 15.6172C135.574 16 135.711 16.3281 135.984 16.6016C136.25 16.8672 136.574 17 136.957 17C137.34 17 137.664 16.8672 137.93 16.6016C138.203 16.3281 138.34 16 138.34 15.6172V2.9375H141.832C142.207 2.9375 142.531 2.80078 142.805 2.52734C143.07 2.26172 143.203 1.9375 143.203 1.55469C143.203 1.17187 143.07 0.847656 142.805 0.582031C142.531 0.308594 142.207 0.171875 141.832 0.171875H132.094C131.711 0.171875 131.383 0.308594 131.109 0.582031C130.844 0.847656 130.711 1.17187 130.711 1.55469C130.711 1.9375 130.844 2.26172 131.109 2.52734C131.383 2.80078 131.711 2.9375 132.094 2.9375H135.574V15.6172ZM149.051 14.2227V9.96875H154.16C154.543 9.96875 154.871 9.83594 155.145 9.57031C155.418 9.29688 155.555 8.96875 155.555 8.58594C155.555 8.20312 155.418 7.875 155.145 7.60156C154.871 7.33594 154.543 7.20312 154.16 7.20312H149.051V2.94922L156.129 2.97266H156.141C156.523 2.97266 156.848 2.83594 157.113 2.5625C157.387 2.29687 157.523 1.97266 157.523 1.58984C157.523 1.20703 157.391 0.878906 157.125 0.605469C156.852 0.332031 156.523 0.195312 156.141 0.195312L147.668 0.171875H147.656C147.273 0.171875 146.949 0.308594 146.684 0.582031C146.41 0.847656 146.273 1.17578 146.273 1.56641V15.6172C146.273 16 146.41 16.3242 146.684 16.5898C146.949 16.8633 147.273 17 147.656 17H156.141C156.523 17 156.848 16.8633 157.113 16.5898C157.387 16.3242 157.523 16 157.523 15.6172C157.523 15.2344 157.387 14.9062 157.113 14.6328C156.848 14.3594 156.523 14.2227 156.141 14.2227H149.051Z" fill="white"/>
</svg>
