<svg width="30" height="24" viewBox="0 0 30 24" fill="none" xmlns="http://www.w3.org/2000/svg">
<path d="M24.9001 0.199951C26.0936 0.199951 27.2382 0.674057 28.0821 1.51797C28.926 2.36188 29.4001 3.50648 29.4001 4.69995V19.1C29.4001 20.2934 28.926 21.438 28.0821 22.2819C27.2382 23.1258 26.0936 23.6 24.9001 23.6H5.1001C3.90662 23.6 2.76203 23.1258 1.91812 22.2819C1.0742 21.438 0.600098 20.2934 0.600098 19.1V4.69995C0.600098 3.50648 1.0742 2.36188 1.91812 1.51797C2.76203 0.674057 3.90662 0.199951 5.1001 0.199951H24.9001ZM27.6001 7.32975L15.4573 14.4758C15.3425 14.5432 15.2142 14.5842 15.0816 14.5961C14.949 14.6079 14.8154 14.5902 14.6905 14.5442L14.5429 14.4758L2.4001 7.33335V19.1C2.4001 19.816 2.68456 20.5028 3.19091 21.0091C3.69726 21.5155 4.38401 21.8 5.1001 21.8H24.9001C25.6162 21.8 26.3029 21.5155 26.8093 21.0091C27.3156 20.5028 27.6001 19.816 27.6001 19.1V7.32975ZM24.9001 1.99995H5.1001C4.38401 1.99995 3.69726 2.28441 3.19091 2.79076C2.68456 3.29711 2.4001 3.98387 2.4001 4.69995V5.24355L15.0001 12.656L27.6001 5.23995V4.69995C27.6001 3.98387 27.3156 3.29711 26.8093 2.79076C26.3029 2.28441 25.6162 1.99995 24.9001 1.99995Z" fill="white"/>
</svg>
