<svg width="32" height="32" viewBox="0 0 32 32" fill="none" xmlns="http://www.w3.org/2000/svg">
<path d="M19 2C18.2044 2 17.4413 2.31607 16.8787 2.87868C16.3161 3.44129 16 4.20435 16 5V9C16.0001 9.62031 16.1925 10.2253 16.5506 10.7318C16.9088 11.2383 17.4152 11.6212 18 11.828V14C18.0001 14.19 18.0543 14.3761 18.1563 14.5364C18.2583 14.6967 18.4038 14.8247 18.5759 14.9052C18.748 14.9858 18.9395 15.0157 19.1279 14.9914C19.3164 14.9671 19.494 14.8896 19.64 14.768L22.96 12H27C27.7956 12 28.5587 11.6839 29.1213 11.1213C29.6839 10.5587 30 9.79565 30 9V5C30 4.20435 29.6839 3.44129 29.1213 2.87868C28.5587 2.31607 27.7956 2 27 2H19ZM18 5C18 4.73478 18.1054 4.48043 18.2929 4.29289C18.4804 4.10536 18.7348 4 19 4H27C27.2652 4 27.5196 4.10536 27.7071 4.29289C27.8946 4.48043 28 4.73478 28 5V9C28 9.26522 27.8946 9.51957 27.7071 9.70711C27.5196 9.89464 27.2652 10 27 10H22.6C22.3661 10.0001 22.1396 10.0822 21.96 10.232L20 11.864V11C20 10.7348 19.8946 10.4804 19.7071 10.2929C19.5196 10.1054 19.2652 10 19 10C18.7348 10 18.4804 9.89464 18.2929 9.70711C18.1054 9.51957 18 9.26522 18 9V5ZM6 12C6 10.9391 6.42143 9.92172 7.17157 9.17157C7.92172 8.42143 8.93913 8 10 8C11.0609 8 12.0783 8.42143 12.8284 9.17157C13.5786 9.92172 14 10.9391 14 12C14 13.0609 13.5786 14.0783 12.8284 14.8284C12.0783 15.5786 11.0609 16 10 16C8.93913 16 7.92172 15.5786 7.17157 14.8284C6.42143 14.0783 6 13.0609 6 12ZM10 10C9.46957 10 8.96086 10.2107 8.58579 10.5858C8.21071 10.9609 8 11.4696 8 12C8 12.5304 8.21071 13.0391 8.58579 13.4142C8.96086 13.7893 9.46957 14 10 14C10.5304 14 11.0391 13.7893 11.4142 13.4142C11.7893 13.0391 12 12.5304 12 12C12 11.4696 11.7893 10.9609 11.4142 10.5858C11.0391 10.2107 10.5304 10 10 10ZM5 18H15C15.7956 18 16.5587 18.3161 17.1213 18.8787C17.6839 19.4413 18 20.2044 18 21C18 23.232 17.082 25.02 15.576 26.23C14.094 27.42 12.106 28 10 28C7.894 28 5.906 27.42 4.424 26.23C2.92 25.02 2 23.232 2 21C2 20.2044 2.31607 19.4413 2.87868 18.8787C3.44129 18.3161 4.20435 18 5 18ZM15 20H5C4.73478 20 4.48043 20.1054 4.29289 20.2929C4.10536 20.4804 4 20.7348 4 21C4 22.634 4.65 23.846 5.676 24.67C6.728 25.514 8.24 26 10 26C11.76 26 13.272 25.514 14.324 24.67C15.35 23.846 16 22.634 16 21C16 20.7348 15.8946 20.4804 15.7071 20.2929C15.5196 20.1054 15.2652 20 15 20Z" fill="white"/>
</svg>
