<svg width="100" height="100" viewBox="0 0 100 100" fill="none" xmlns="http://www.w3.org/2000/svg">
<path d="M45.7471 45.4307V0.422997C45.7471 0.307789 45.7088 0.192577 45.5938 0.115772C45.4789 0.0389671 45.4022 0.00056839 45.2873 0.00056839C45.1724 0.00056839 45.0574 0.0389671 44.9808 0.115772L10.0766 35.062L8.85052 36.2909L2.45205 42.7425L2.37542 42.8193L0.114885 45.0851C0.0765713 45.1235 0.0765713 45.1235 0.0382571 45.1619C-5.70593e-05 45.3155 -5.70593e-05 45.4691 0.0382571 45.5843C0.0382571 45.6227 0.0765713 45.6227 0.0765713 45.6227C0.0765713 45.6611 0.114885 45.6611 0.114885 45.6995C0.1532 45.7379 0.191514 45.7763 0.229828 45.7763C0.268142 45.8147 0.344771 45.8147 0.421399 45.8147H45.3256C45.4022 45.8147 45.4789 45.8147 45.5172 45.7379C45.6704 45.6995 45.7471 45.5843 45.7471 45.4307Z" fill="white"/>
<path d="M0.268311 45.8141C0.306625 45.8525 0.383253 45.8525 0.459881 45.8525C0.383253 45.8525 0.306625 45.8141 0.268311 45.8141Z" fill="white"/>
<mask id="path-3-inside-1_531:13" fill="white">
<path d="M62.452 1.9586L59.3486 2.38103L57.7777 2.57304C57.2796 2.64985 56.7432 2.76505 56.2451 2.88026C55.2107 3.11067 54.1762 3.30268 53.18 3.5715L50.1532 4.49315C49.4635 4.72357 48.7739 4.99238 48.0842 5.2612V5.79883C48.8122 5.49161 49.5402 5.18439 50.3065 4.87718L53.2566 3.87872C54.2528 3.6099 55.2873 3.37949 56.2835 3.11067C56.7815 2.99546 57.3179 2.84185 57.816 2.72665L59.3486 2.45783L62.452 1.9586Z"/>
</mask>
<path d="M62.452 1.9586L59.3486 2.38103L57.7777 2.57304C57.2796 2.64985 56.7432 2.76505 56.2451 2.88026C55.2107 3.11067 54.1762 3.30268 53.18 3.5715L50.1532 4.49315C49.4635 4.72357 48.7739 4.99238 48.0842 5.2612V5.79883C48.8122 5.49161 49.5402 5.18439 50.3065 4.87718L53.2566 3.87872C54.2528 3.6099 55.2873 3.37949 56.2835 3.11067C56.7815 2.99546 57.3179 2.84185 57.816 2.72665L59.3486 2.45783L62.452 1.9586Z" fill="white"/>
<path d="M62.452 1.9586L62.3711 1.36408L62.5473 2.55099L62.452 1.9586ZM59.3486 2.38103L59.4295 2.9756L59.4214 2.9766L59.3486 2.38103ZM57.7777 2.57304L57.6863 1.98005L57.6956 1.97862L57.7049 1.97747L57.7777 2.57304ZM56.2451 2.88026L56.3804 3.46485L56.3756 3.46591L56.2451 2.88026ZM53.18 3.5715L53.0052 2.99752L53.0144 2.99472L53.0237 2.99222L53.18 3.5715ZM50.1532 4.49315L49.9631 3.92407L49.9707 3.92152L49.9784 3.91917L50.1532 4.49315ZM48.0842 5.2612H47.4842V4.8511L47.8663 4.70217L48.0842 5.2612ZM48.0842 5.79883L48.3175 6.35162L47.4842 6.70328V5.79883H48.0842ZM50.3065 4.87718L50.0832 4.32027L50.0985 4.31413L50.1141 4.30884L50.3065 4.87718ZM53.2566 3.87872L53.0643 3.31038L53.0821 3.30434L53.1003 3.29944L53.2566 3.87872ZM56.2835 3.11067L56.1271 2.53139L56.1376 2.52856L56.1483 2.5261L56.2835 3.11067ZM57.816 2.72665L57.6808 2.14208L57.6965 2.13845L57.7124 2.13567L57.816 2.72665ZM59.3486 2.45783L59.2449 1.8668L59.2533 1.86545L59.3486 2.45783ZM62.533 2.55312L59.4295 2.97555L59.2677 1.78651L62.3711 1.36408L62.533 2.55312ZM59.4214 2.9766L57.8505 3.16861L57.7049 1.97747L59.2758 1.78546L59.4214 2.9766ZM57.8692 3.16603C57.3933 3.23941 56.8741 3.35063 56.3804 3.46483L56.1099 2.29569C56.6124 2.17948 57.1659 2.06028 57.6863 1.98005L57.8692 3.16603ZM56.3756 3.46591C55.3121 3.70279 54.3162 3.88636 53.3363 4.15078L53.0237 2.99222C54.0362 2.719 55.1093 2.51855 56.1147 2.29461L56.3756 3.46591ZM53.3548 4.14548L50.328 5.06713L49.9784 3.91917L53.0052 2.99752L53.3548 4.14548ZM50.3433 5.06223C49.6701 5.28716 48.9943 5.55045 48.3021 5.82023L47.8663 4.70217C48.5535 4.43432 49.257 4.15997 49.9631 3.92407L50.3433 5.06223ZM48.6842 5.2612V5.79883H47.4842V5.2612H48.6842ZM47.8509 5.24604C48.5782 4.9391 49.3111 4.62981 50.0832 4.32027L50.5297 5.43409C49.7692 5.73898 49.0462 6.04412 48.3175 6.35162L47.8509 5.24604ZM50.1141 4.30884L53.0643 3.31038L53.449 4.44705L50.4988 5.44551L50.1141 4.30884ZM53.1003 3.29944C53.606 3.16297 54.1203 3.03657 54.6268 2.91204C55.1356 2.78695 55.6367 2.66374 56.1271 2.53139L56.4398 3.68995C55.9341 3.82642 55.4198 3.95282 54.9133 4.07734C54.4045 4.20244 53.9034 4.32564 53.413 4.45799L53.1003 3.29944ZM56.1483 2.5261C56.388 2.47064 56.6387 2.40556 56.8988 2.33795C57.1559 2.27115 57.4225 2.20183 57.6808 2.14208L57.9512 3.31121C57.7115 3.36667 57.4608 3.43176 57.2006 3.49937C56.9436 3.56617 56.677 3.63549 56.4187 3.69524L56.1483 2.5261ZM57.7124 2.13567L59.2449 1.86686L59.4523 3.04881L57.9197 3.31763L57.7124 2.13567ZM59.2533 1.86545L62.3568 1.36622L62.5473 2.55099L59.4439 3.05022L59.2533 1.86545Z" fill="white" mask="url(#path-3-inside-1_531:13)"/>
<path d="M48.3842 13.8064V14.635C48.659 14.4744 48.932 14.3252 49.2009 14.1781L49.2047 14.1761L49.2053 14.1757C52.837 12.2008 56.8565 10.8445 61.0326 10.3017C63.8712 9.90302 66.7616 9.8696 69.6285 10.1126C66.7484 9.76424 63.8398 9.69827 60.9521 10.014L60.9494 10.0143C56.7727 10.4329 52.6701 11.651 48.87 13.5554C48.6969 13.6422 48.5316 13.7251 48.3842 13.8064Z" fill="white" stroke="white" stroke-width="0.6"/>
<mask id="path-6-inside-2_531:13" fill="white">
<path d="M92.2223 59.447C91.6476 55.2227 90.2682 51.1137 88.2376 47.3502C87.2031 45.4685 86.0154 43.6636 84.6744 42.0123C84.3679 41.5899 83.9847 41.1674 83.6399 40.7834C83.2951 40.361 82.9502 39.977 82.5671 39.5929C81.8774 38.7865 81.0728 38.0184 80.2299 37.3272C76.8966 34.5622 73.1801 32.3733 69.0805 30.8756C67.0499 30.1459 64.9426 29.5699 62.7203 29.3395C61.6092 29.2243 60.4981 29.1475 59.387 29.2627C58.2759 29.3395 57.1265 29.4931 56.0154 29.8003C55.4407 29.9539 54.9043 30.1459 54.3679 30.3379C53.8315 30.5684 53.2951 30.7988 52.797 31.106C51.7625 31.6436 50.843 32.3733 50 33.1413C49.2721 33.8326 48.5824 34.5622 47.9694 35.3687V45.4301C47.9694 46.9278 46.7433 48.1567 45.2491 48.1567H43.3334C43.5195 48.3743 43.3243 48.6772 43.0665 48.5526C42.8215 48.4343 42.5794 48.3023 42.3372 48.1567H38.0077C38.0843 48.2335 38.1227 48.3487 38.1993 48.4255C38.9656 49.3856 39.8468 50.2304 40.8813 50.8833C41.9158 51.5361 43.0269 52.0353 44.1763 52.3425C44.3105 52.3695 44.3135 52.559 44.1797 52.5877C42.6655 52.9122 41.1335 52.858 39.6935 52.3425C38.0077 51.7665 36.4751 50.576 35.1725 49.1551C34.9043 48.8479 34.6361 48.5023 34.3679 48.1951H31.1878C31.6859 49.2319 32.3755 50.1536 33.1035 50.9985C34.5594 52.6882 36.3985 54.2627 38.659 55.1459C39.7702 55.5684 40.9962 55.8756 42.2223 55.914C43.4483 55.9524 44.6361 55.7988 45.8238 55.4915C45.9913 55.458 46.086 55.6119 45.9599 55.7271C44.8371 56.7525 43.4604 57.4836 41.9924 57.7573C40.2299 58.1029 38.3142 57.8341 36.4751 57.2965C35.5556 56.9892 34.7127 56.6436 33.9081 56.1444C33.4866 55.914 33.1035 55.6068 32.7204 55.3763C32.3755 55.0691 31.9924 54.8003 31.6476 54.4163C29.9234 52.7266 28.6974 50.5376 27.8545 48.1951H25.479C25.7089 48.9631 25.9771 49.7312 26.2836 50.4992C26.705 51.5361 27.1648 52.5346 27.7778 53.4946C28.3525 54.4547 29.0422 55.3763 29.8468 56.1828C30.2299 56.6052 30.6514 56.9892 31.1112 57.3733C31.5709 57.7189 32.0307 58.1029 32.5288 58.4101C33.4866 59.0246 34.5594 59.5238 35.6322 59.9078C37.7395 60.6375 40.115 61.0599 42.5288 60.6759C43.7165 60.4839 44.9043 60.0998 45.9771 59.5238C47.0499 58.9478 48.0077 58.1797 48.8889 57.3733C48.9965 57.2655 49.1713 57.3663 49.1263 57.5118C48.6697 58.9874 47.8718 60.2929 46.705 61.2903C45.364 62.4808 43.6016 63.2104 41.6859 63.6713C40.7663 63.8633 39.8468 64.0169 38.8889 63.9785C38.4292 63.9785 37.9311 63.9401 37.4713 63.9017C37.0115 63.8249 36.5518 63.7481 36.092 63.6329C32.3755 62.6728 29.1188 60.0614 26.5135 56.9892C24.2912 54.3011 22.4522 51.3057 21.0728 48.1567H19.1571C20.5364 51.8049 22.4138 55.1843 24.8276 58.2565C26.1686 59.9462 27.7012 61.5591 29.4253 62.9032C30.3066 63.5945 31.2261 64.2089 32.2223 64.7465C33.2184 65.2842 34.2529 65.745 35.364 66.0522C35.9004 66.2442 36.4751 66.321 37.0499 66.4362C37.6246 66.5131 38.1993 66.6283 38.774 66.6283C39.9234 66.7051 41.1112 66.5515 42.2223 66.3594C44.4062 65.937 46.6667 65.0922 48.5441 63.5561C49.4636 62.788 50.3066 61.8664 50.9579 60.8295C51.6092 59.7926 52.069 58.6406 52.3755 57.4885C52.4035 57.3482 52.6001 57.3426 52.6328 57.4818C52.9824 58.97 52.9313 60.5064 52.4521 61.9816C51.8774 63.6713 50.728 65.2074 49.3104 66.5515C48.6207 67.2043 47.8928 67.7803 47.0499 68.2412C46.6667 68.51 46.2069 68.6636 45.7855 68.894C45.3257 69.0476 44.9043 69.2396 44.4445 69.3548C40.7663 70.4301 36.6284 69.7773 32.8353 68.4332C29.0422 67.0123 25.364 64.9386 22.2223 62.3656C21.4177 61.7127 20.728 61.0215 20 60.2535C19.6552 59.8694 19.3104 59.4854 18.9656 59.1014C18.6207 58.7174 18.2759 58.3333 17.9694 57.9109C16.6667 56.3364 15.5556 54.5699 14.5211 52.8034C13.6782 51.3057 12.9502 49.7312 12.3755 48.1183H11.2261C11.8008 49.9232 12.5671 51.6897 13.41 53.4178C14.4062 55.2995 15.5173 57.1429 16.82 58.8326C17.1265 59.255 17.4713 59.6774 17.8161 60.0998C18.161 60.5223 18.5058 60.9447 18.8506 61.3287C19.5403 62.1352 20.3449 62.9416 21.1112 63.6329C24.3679 66.4747 28.046 68.7404 32.069 70.3533C34.0997 71.1214 36.2069 71.7742 38.3909 72.043C39.502 72.1966 40.6131 72.2734 41.7242 72.1966C42.8353 72.1582 43.9847 72.0046 45.0958 71.7358C45.6705 71.6206 46.2069 71.3902 46.7433 71.2366C47.2797 71.0061 47.8161 70.8141 48.3142 70.5069C49.3487 69.9693 50.3066 69.278 51.1495 68.5484C52.8353 67.0507 54.3679 65.2074 55.2108 62.9416C55.6322 61.828 55.9004 60.5991 55.9387 59.3702C55.9771 58.1413 55.7855 56.9508 55.479 55.7988C55.4369 55.6299 55.6019 55.5299 55.7211 55.6567C56.7734 56.7763 57.5044 58.1273 57.7778 59.6006C58.161 61.3287 57.9311 63.2488 57.3564 65.1306C57.0882 66.0522 56.7433 66.9355 56.2453 67.7419C56.0154 68.1644 55.7472 68.5484 55.479 68.9324C55.1725 69.278 54.9043 69.6621 54.5594 70.0077C51.9158 72.7727 48.0077 74.3088 44.0613 75.0768C40.0767 75.8064 35.9004 75.8833 31.8774 75.2304C30.843 75.0768 29.9234 74.8464 28.9272 74.5392C28.4292 74.3856 27.9311 74.232 27.433 74.0783C26.9349 73.8863 26.4751 73.7711 25.9771 73.5407C24.0614 72.8111 22.184 71.8894 20.4215 70.8525C16.8966 68.7404 13.6782 66.0138 11.1112 62.788C8.5058 59.5622 6.51346 55.8372 4.98089 51.9585L3.94641 49.0015C3.86978 48.6943 3.79315 48.4255 3.71653 48.1183H3.44833C3.52496 48.4255 3.60158 48.7711 3.67821 49.0783L4.63607 52.0737C6.01538 56.0676 7.93109 59.8694 10.4981 63.2873C13.0269 66.7051 16.2453 69.6237 19.8085 71.9278C21.6092 73.0415 23.4866 74.0783 25.479 74.8848C25.9771 75.1152 26.4751 75.2688 26.9732 75.4608C27.4713 75.6528 27.9694 75.8449 28.4675 75.9985C29.4636 76.3441 30.5364 76.6513 31.6092 76.8433C35.8621 77.6498 40.1916 77.7266 44.4445 77.1121C46.5901 76.7665 48.6974 76.2289 50.7663 75.384C51.8008 74.9616 52.797 74.4624 53.7165 73.8479C54.6744 73.2719 55.5939 72.5422 56.3985 71.7358C56.82 71.3518 57.2031 70.8909 57.5479 70.4685C57.8928 70.0077 58.2759 69.5469 58.5441 69.0476C59.1571 68.0876 59.6169 67.0123 60 65.8986C60.6897 63.7481 61.1111 61.4055 60.6897 58.9862C60.4981 57.7957 60.0767 56.6052 59.502 55.5299C58.9272 54.4547 58.161 53.4946 57.3181 52.6498C57.213 52.5708 57.3227 52.3726 57.4488 52.4097C58.9156 52.8414 60.2376 53.6345 61.2261 54.7619C62.4138 56.106 63.1801 57.8725 63.6399 59.7542C63.8698 60.6759 63.9847 61.5975 63.9847 62.5576C64.023 63.0184 63.9464 63.4793 63.9081 63.9785C63.8315 64.4393 63.7931 64.9002 63.6399 65.3994C62.7204 69.1244 60.1533 72.427 57.1265 75.0768C54.0613 77.7266 50.4598 79.8771 46.6667 81.3748C45.7089 81.7204 44.7893 82.0276 43.7548 82.2581C43.2567 82.3733 42.7587 82.4885 42.2606 82.6037C41.7625 82.7189 41.2644 82.8341 40.7663 82.8725C38.7357 83.2181 36.6667 83.3717 34.6361 83.3717C30.5364 83.4869 26.4368 82.7189 22.5671 81.2212C18.6974 79.7619 15.0958 77.573 11.8391 74.9616L9.46365 72.9263C8.69737 72.1966 7.9694 71.4286 7.24143 70.6989C6.85829 70.3149 6.51346 69.9693 6.13032 69.5853L5.13415 68.3948L3.06519 65.9754L5.01921 68.4332L6.01538 69.6621C6.3602 70.0461 6.74335 70.4301 7.08817 70.8141C7.81614 71.5822 8.5058 72.3502 9.23377 73.1183L11.5709 75.2688C14.7893 77.9954 18.3525 80.3379 22.2606 81.9892C26.1686 83.6406 30.3832 84.5622 34.6744 84.7542C36.7817 84.831 38.9656 84.7542 41.0728 84.447C41.6092 84.4086 42.1456 84.2934 42.6437 84.2166C43.1801 84.1398 43.7165 84.0246 44.2146 83.9094C45.2491 83.7174 46.3219 83.4101 47.3564 83.0645C51.4177 81.6436 55.2108 79.5315 58.5824 76.8049C60.2682 75.4224 61.8391 73.8863 63.1801 72.1198C63.8315 71.2366 64.4445 70.3149 64.9809 69.278C65.5173 68.2796 65.9387 67.2427 66.2453 66.129C66.3985 65.5914 66.5135 65.0154 66.6284 64.4393C66.705 63.8633 66.7817 63.2872 66.7817 62.7112C66.82 61.5591 66.705 60.3687 66.4751 59.255C66.0154 57.0661 65.1725 54.8003 63.6016 52.9186C62.8353 51.9969 61.8774 51.1521 60.843 50.5376C59.8085 49.9232 58.659 49.4624 57.5096 49.1551C57.3691 49.127 57.3633 48.9296 57.5026 48.8961C58.9875 48.5391 60.5205 48.5596 61.9924 49.0399C63.6782 49.5776 65.2491 50.7296 66.5901 52.1121C67.2414 52.8034 67.8544 53.533 68.3142 54.3395C68.5824 54.7235 68.7357 55.1843 68.9656 55.6068C69.1188 56.0292 69.3104 56.49 69.4253 56.9508C70.5364 60.6375 69.9617 64.7849 68.659 68.6252C67.318 72.4654 65.3257 76.1137 62.797 79.3395C62.1456 80.1459 61.4943 80.8756 60.728 81.5668C60.3832 81.9124 60 82.2965 59.6169 82.6037C59.2338 82.9493 58.8506 83.2949 58.4292 83.6021C56.8583 84.9462 55.1341 86.0983 53.3717 87.1352C49.8085 89.1705 45.8621 90.5914 41.7625 91.2826C37.6629 91.9739 33.4866 91.8971 29.3487 91.2826L26.2453 90.745C25.2491 90.5146 24.2146 90.2074 23.2184 89.977C22.7204 89.8233 22.2223 89.7081 21.7242 89.5545L20.2299 89.0553L17.2797 88.0184L20.1916 89.1705L21.6476 89.7465C22.1456 89.9002 22.6437 90.0538 23.1418 90.2074C24.138 90.5146 25.1341 90.8218 26.1686 91.0906L29.2338 91.7435C33.3717 92.5115 37.6629 92.7419 41.8391 92.1659C46.0537 91.6283 50.1533 90.2842 53.9464 88.2873C55.8238 87.2504 57.6246 86.1367 59.3104 84.7926C59.7318 84.4854 60.1533 84.1398 60.5748 83.7942C60.9962 83.4485 61.3794 83.1029 61.8008 82.7573C62.6054 82.0661 63.3717 81.2596 64.0997 80.4531C66.8966 77.1505 69.1188 73.4255 70.6514 69.3932C71.4177 67.3579 71.9924 65.2458 72.2606 63.0184C72.4138 61.9048 72.4521 60.7911 72.4138 59.6774C72.3755 58.5637 72.2223 57.4117 71.9157 56.298C71.8008 55.722 71.5709 55.1843 71.3793 54.6467C71.1495 54.1091 70.9196 53.5714 70.6514 53.0722C70.115 52.0353 69.387 51.1137 68.659 50.2688C67.1648 48.6175 65.2874 47.0814 63.0269 46.2366C61.8774 45.8141 60.6897 45.5837 59.4636 45.5837C58.2376 45.5837 57.0499 45.7757 55.9004 46.083C55.7636 46.1104 55.6606 45.9618 55.7607 45.8647C56.8487 44.8095 58.1955 44.0475 59.6935 43.7404C61.4177 43.3564 63.3717 43.5484 65.2108 44.086C66.1303 44.3548 67.0115 44.6621 67.8161 45.1613C68.2376 45.3533 68.6207 45.6605 69.0039 45.9293C69.3487 46.2366 69.7702 46.5054 70.0767 46.851C72.8736 49.4624 74.4445 53.3794 75.2491 57.2965C76.0154 61.2903 76.1303 65.4762 75.5556 69.5084C75.4023 70.5069 75.2108 71.467 74.9043 72.4654C74.751 72.9647 74.5977 73.4639 74.4445 73.9247C74.2912 74.424 74.138 74.9232 73.9464 75.384C73.2567 77.3425 72.3755 79.1859 71.341 80.9908C69.2721 84.5622 66.5901 87.788 63.41 90.4378C60.2299 93.0876 56.5518 95.1613 52.682 96.6974L49.7318 97.7727C48.7357 98.0799 47.7395 98.3487 46.705 98.6175C46.2069 98.7711 45.7089 98.9247 45.2108 99.0399L43.6782 99.3472L40.4215 100L43.5249 99.5008L45.0958 99.2704C45.5939 99.1551 46.1303 99.0399 46.6284 98.9247C47.6629 98.6943 48.659 98.4639 49.6935 98.1951L52.682 97.1966C56.6284 95.7373 60.4215 93.8172 63.7931 91.2058C67.1648 88.5945 70.0384 85.3687 72.2989 81.7588C73.41 79.9155 74.4062 78.0338 75.1725 76.0369C75.4023 75.5376 75.5556 75.0384 75.7472 74.5392C75.9387 74.0399 76.092 73.5407 76.2836 73.0031C76.6284 72.0046 76.8966 70.9293 77.0882 69.8541C77.8544 65.5914 77.8928 61.2519 77.2031 56.9508C76.82 54.8003 76.2836 52.6882 75.4023 50.6528C74.9809 49.6544 74.4445 48.6175 73.8315 47.6959C73.2184 46.7358 72.5288 45.8525 71.6859 45.0461C71.3027 44.6237 70.843 44.278 70.4215 43.894C69.9617 43.5484 69.502 43.2028 69.0039 42.9339C68.046 42.3195 66.9349 41.8587 65.8621 41.5131C63.7165 40.8218 61.341 40.4378 58.9656 40.8986C57.7778 41.129 56.5901 41.5131 55.5556 42.1275C54.4828 42.7419 53.5633 43.51 52.7204 44.3548C52.6038 44.4716 52.4335 44.3833 52.4792 44.2248C52.9032 42.7538 53.6642 41.4246 54.7893 40.3994C56.092 39.1705 57.8545 38.4025 59.7318 37.9032C60.6514 37.6728 61.5709 37.5192 62.5288 37.5192C62.9885 37.4808 63.4483 37.5576 63.9464 37.5576C64.4062 37.6344 64.8659 37.6728 65.3257 37.788C69.0805 38.6329 72.3755 41.2058 75.0575 44.2012C77.7395 47.235 79.9234 50.8064 81.456 54.6083C81.8391 55.5684 82.1456 56.49 82.3755 57.5269C82.5288 58.0261 82.6437 58.5253 82.7203 59.0246C82.8353 59.5238 82.9502 60.023 83.0269 60.5607C83.41 62.596 83.5633 64.6313 83.6016 66.7051C83.6016 70.8141 82.9119 74.9616 81.456 78.8786C80.0384 82.7957 77.8928 86.4055 75.3257 89.7081L73.3334 92.1275C72.6054 92.8955 71.8774 93.6252 71.1495 94.3932C70.7663 94.7773 70.4215 95.1613 70.0384 95.5069L68.8506 96.5438L66.4751 98.6175L68.9272 96.6206L70.1533 95.6221C70.5364 95.2765 70.9196 94.8925 71.3027 94.5469C72.069 93.8172 72.8353 93.0876 73.5633 92.3579L75.6705 89.977C78.3525 86.7127 80.6514 83.1413 82.2606 79.1859C83.8698 75.2688 84.751 71.0061 84.8659 66.7435C84.9043 64.5929 84.8276 62.4424 84.4828 60.3303C84.4445 59.7926 84.3295 59.255 84.2146 58.7558C84.138 58.2181 84.023 57.7189 83.9081 57.1813C83.7165 56.1444 83.3717 55.0691 83.0269 54.0323C81.5326 49.9616 79.387 46.1982 76.6667 42.8571C75.2874 41.2058 73.7165 39.6313 71.9541 38.3256C71.0728 37.6728 70.115 37.0584 69.1188 36.5591C68.1227 36.0599 67.0499 35.6375 65.9387 35.3303C65.4023 35.1767 64.8276 35.0998 64.2529 34.9846C63.6782 34.9462 63.1035 34.831 62.5288 34.8694C61.3794 34.831 60.1916 34.9846 59.0805 35.215C56.8966 35.7143 54.6744 36.5591 52.797 38.172C51.8774 38.9401 51.0728 39.9002 50.4598 40.9754C49.8468 42.0123 49.4253 43.1644 49.1571 44.3548C49.1261 44.5102 48.9275 44.5182 48.8873 44.3649C48.4964 42.8761 48.486 41.3421 48.9656 39.9002C49.502 38.172 50.6131 36.6359 51.9924 35.2534C52.682 34.6006 53.3717 33.9862 54.2146 33.5253C54.5977 33.2565 55.0192 33.0645 55.4407 32.8725C55.9004 32.6805 56.3219 32.4885 56.7817 32.3733C60.4215 31.2212 64.5977 31.7588 68.4292 33.0261C72.2606 34.2934 75.9387 36.2903 79.1571 38.7865C79.9617 39.4393 80.6897 40.0922 81.4177 40.8218C81.8008 41.1674 82.1456 41.5515 82.4905 41.9355C82.8353 42.3195 83.1801 42.7035 83.5249 43.0876C84.8659 44.6621 86.0537 46.3518 87.1265 48.1183C89.1954 51.6513 90.6897 55.6068 91.3793 59.6774C92.1073 63.7865 92.069 67.9724 91.5326 72.1198L91.0345 75.2304C90.8046 76.2673 90.5364 77.2657 90.2682 78.2642C90.1533 78.7634 90.0384 79.3011 89.8851 79.8003L89.387 81.298L88.3908 84.2934L89.502 81.3364L90.0384 79.8387C90.1916 79.3395 90.3449 78.8402 90.4598 78.341C90.7663 77.3426 91.0728 76.3057 91.3027 75.3072L91.9157 72.1966C92.6437 67.9339 92.8353 63.6329 92.2223 59.447Z"/>
</mask>
<path d="M92.2223 59.447C91.6476 55.2227 90.2682 51.1137 88.2376 47.3502C87.2031 45.4685 86.0154 43.6636 84.6744 42.0123C84.3679 41.5899 83.9847 41.1674 83.6399 40.7834C83.2951 40.361 82.9502 39.977 82.5671 39.5929C81.8774 38.7865 81.0728 38.0184 80.2299 37.3272C76.8966 34.5622 73.1801 32.3733 69.0805 30.8756C67.0499 30.1459 64.9426 29.5699 62.7203 29.3395C61.6092 29.2243 60.4981 29.1475 59.387 29.2627C58.2759 29.3395 57.1265 29.4931 56.0154 29.8003C55.4407 29.9539 54.9043 30.1459 54.3679 30.3379C53.8315 30.5684 53.2951 30.7988 52.797 31.106C51.7625 31.6436 50.843 32.3733 50 33.1413C49.2721 33.8326 48.5824 34.5622 47.9694 35.3687V45.4301C47.9694 46.9278 46.7433 48.1567 45.2491 48.1567H43.3334C43.5195 48.3743 43.3243 48.6772 43.0665 48.5526C42.8215 48.4343 42.5794 48.3023 42.3372 48.1567H38.0077C38.0843 48.2335 38.1227 48.3487 38.1993 48.4255C38.9656 49.3856 39.8468 50.2304 40.8813 50.8833C41.9158 51.5361 43.0269 52.0353 44.1763 52.3425C44.3105 52.3695 44.3135 52.559 44.1797 52.5877C42.6655 52.9122 41.1335 52.858 39.6935 52.3425C38.0077 51.7665 36.4751 50.576 35.1725 49.1551C34.9043 48.8479 34.6361 48.5023 34.3679 48.1951H31.1878C31.6859 49.2319 32.3755 50.1536 33.1035 50.9985C34.5594 52.6882 36.3985 54.2627 38.659 55.1459C39.7702 55.5684 40.9962 55.8756 42.2223 55.914C43.4483 55.9524 44.6361 55.7988 45.8238 55.4915C45.9913 55.458 46.086 55.6119 45.9599 55.7271C44.8371 56.7525 43.4604 57.4836 41.9924 57.7573C40.2299 58.1029 38.3142 57.8341 36.4751 57.2965C35.5556 56.9892 34.7127 56.6436 33.9081 56.1444C33.4866 55.914 33.1035 55.6068 32.7204 55.3763C32.3755 55.0691 31.9924 54.8003 31.6476 54.4163C29.9234 52.7266 28.6974 50.5376 27.8545 48.1951H25.479C25.7089 48.9631 25.9771 49.7312 26.2836 50.4992C26.705 51.5361 27.1648 52.5346 27.7778 53.4946C28.3525 54.4547 29.0422 55.3763 29.8468 56.1828C30.2299 56.6052 30.6514 56.9892 31.1112 57.3733C31.5709 57.7189 32.0307 58.1029 32.5288 58.4101C33.4866 59.0246 34.5594 59.5238 35.6322 59.9078C37.7395 60.6375 40.115 61.0599 42.5288 60.6759C43.7165 60.4839 44.9043 60.0998 45.9771 59.5238C47.0499 58.9478 48.0077 58.1797 48.8889 57.3733C48.9965 57.2655 49.1713 57.3663 49.1263 57.5118C48.6697 58.9874 47.8718 60.2929 46.705 61.2903C45.364 62.4808 43.6016 63.2104 41.6859 63.6713C40.7663 63.8633 39.8468 64.0169 38.8889 63.9785C38.4292 63.9785 37.9311 63.9401 37.4713 63.9017C37.0115 63.8249 36.5518 63.7481 36.092 63.6329C32.3755 62.6728 29.1188 60.0614 26.5135 56.9892C24.2912 54.3011 22.4522 51.3057 21.0728 48.1567H19.1571C20.5364 51.8049 22.4138 55.1843 24.8276 58.2565C26.1686 59.9462 27.7012 61.5591 29.4253 62.9032C30.3066 63.5945 31.2261 64.2089 32.2223 64.7465C33.2184 65.2842 34.2529 65.745 35.364 66.0522C35.9004 66.2442 36.4751 66.321 37.0499 66.4362C37.6246 66.5131 38.1993 66.6283 38.774 66.6283C39.9234 66.7051 41.1112 66.5515 42.2223 66.3594C44.4062 65.937 46.6667 65.0922 48.5441 63.5561C49.4636 62.788 50.3066 61.8664 50.9579 60.8295C51.6092 59.7926 52.069 58.6406 52.3755 57.4885C52.4035 57.3482 52.6001 57.3426 52.6328 57.4818C52.9824 58.97 52.9313 60.5064 52.4521 61.9816C51.8774 63.6713 50.728 65.2074 49.3104 66.5515C48.6207 67.2043 47.8928 67.7803 47.0499 68.2412C46.6667 68.51 46.2069 68.6636 45.7855 68.894C45.3257 69.0476 44.9043 69.2396 44.4445 69.3548C40.7663 70.4301 36.6284 69.7773 32.8353 68.4332C29.0422 67.0123 25.364 64.9386 22.2223 62.3656C21.4177 61.7127 20.728 61.0215 20 60.2535C19.6552 59.8694 19.3104 59.4854 18.9656 59.1014C18.6207 58.7174 18.2759 58.3333 17.9694 57.9109C16.6667 56.3364 15.5556 54.5699 14.5211 52.8034C13.6782 51.3057 12.9502 49.7312 12.3755 48.1183H11.2261C11.8008 49.9232 12.5671 51.6897 13.41 53.4178C14.4062 55.2995 15.5173 57.1429 16.82 58.8326C17.1265 59.255 17.4713 59.6774 17.8161 60.0998C18.161 60.5223 18.5058 60.9447 18.8506 61.3287C19.5403 62.1352 20.3449 62.9416 21.1112 63.6329C24.3679 66.4747 28.046 68.7404 32.069 70.3533C34.0997 71.1214 36.2069 71.7742 38.3909 72.043C39.502 72.1966 40.6131 72.2734 41.7242 72.1966C42.8353 72.1582 43.9847 72.0046 45.0958 71.7358C45.6705 71.6206 46.2069 71.3902 46.7433 71.2366C47.2797 71.0061 47.8161 70.8141 48.3142 70.5069C49.3487 69.9693 50.3066 69.278 51.1495 68.5484C52.8353 67.0507 54.3679 65.2074 55.2108 62.9416C55.6322 61.828 55.9004 60.5991 55.9387 59.3702C55.9771 58.1413 55.7855 56.9508 55.479 55.7988C55.4369 55.6299 55.6019 55.5299 55.7211 55.6567C56.7734 56.7763 57.5044 58.1273 57.7778 59.6006C58.161 61.3287 57.9311 63.2488 57.3564 65.1306C57.0882 66.0522 56.7433 66.9355 56.2453 67.7419C56.0154 68.1644 55.7472 68.5484 55.479 68.9324C55.1725 69.278 54.9043 69.6621 54.5594 70.0077C51.9158 72.7727 48.0077 74.3088 44.0613 75.0768C40.0767 75.8064 35.9004 75.8833 31.8774 75.2304C30.843 75.0768 29.9234 74.8464 28.9272 74.5392C28.4292 74.3856 27.9311 74.232 27.433 74.0783C26.9349 73.8863 26.4751 73.7711 25.9771 73.5407C24.0614 72.8111 22.184 71.8894 20.4215 70.8525C16.8966 68.7404 13.6782 66.0138 11.1112 62.788C8.5058 59.5622 6.51346 55.8372 4.98089 51.9585L3.94641 49.0015C3.86978 48.6943 3.79315 48.4255 3.71653 48.1183H3.44833C3.52496 48.4255 3.60158 48.7711 3.67821 49.0783L4.63607 52.0737C6.01538 56.0676 7.93109 59.8694 10.4981 63.2873C13.0269 66.7051 16.2453 69.6237 19.8085 71.9278C21.6092 73.0415 23.4866 74.0783 25.479 74.8848C25.9771 75.1152 26.4751 75.2688 26.9732 75.4608C27.4713 75.6528 27.9694 75.8449 28.4675 75.9985C29.4636 76.3441 30.5364 76.6513 31.6092 76.8433C35.8621 77.6498 40.1916 77.7266 44.4445 77.1121C46.5901 76.7665 48.6974 76.2289 50.7663 75.384C51.8008 74.9616 52.797 74.4624 53.7165 73.8479C54.6744 73.2719 55.5939 72.5422 56.3985 71.7358C56.82 71.3518 57.2031 70.8909 57.5479 70.4685C57.8928 70.0077 58.2759 69.5469 58.5441 69.0476C59.1571 68.0876 59.6169 67.0123 60 65.8986C60.6897 63.7481 61.1111 61.4055 60.6897 58.9862C60.4981 57.7957 60.0767 56.6052 59.502 55.5299C58.9272 54.4547 58.161 53.4946 57.3181 52.6498C57.213 52.5708 57.3227 52.3726 57.4488 52.4097C58.9156 52.8414 60.2376 53.6345 61.2261 54.7619C62.4138 56.106 63.1801 57.8725 63.6399 59.7542C63.8698 60.6759 63.9847 61.5975 63.9847 62.5576C64.023 63.0184 63.9464 63.4793 63.9081 63.9785C63.8315 64.4393 63.7931 64.9002 63.6399 65.3994C62.7204 69.1244 60.1533 72.427 57.1265 75.0768C54.0613 77.7266 50.4598 79.8771 46.6667 81.3748C45.7089 81.7204 44.7893 82.0276 43.7548 82.2581C43.2567 82.3733 42.7587 82.4885 42.2606 82.6037C41.7625 82.7189 41.2644 82.8341 40.7663 82.8725C38.7357 83.2181 36.6667 83.3717 34.6361 83.3717C30.5364 83.4869 26.4368 82.7189 22.5671 81.2212C18.6974 79.7619 15.0958 77.573 11.8391 74.9616L9.46365 72.9263C8.69737 72.1966 7.9694 71.4286 7.24143 70.6989C6.85829 70.3149 6.51346 69.9693 6.13032 69.5853L5.13415 68.3948L3.06519 65.9754L5.01921 68.4332L6.01538 69.6621C6.3602 70.0461 6.74335 70.4301 7.08817 70.8141C7.81614 71.5822 8.5058 72.3502 9.23377 73.1183L11.5709 75.2688C14.7893 77.9954 18.3525 80.3379 22.2606 81.9892C26.1686 83.6406 30.3832 84.5622 34.6744 84.7542C36.7817 84.831 38.9656 84.7542 41.0728 84.447C41.6092 84.4086 42.1456 84.2934 42.6437 84.2166C43.1801 84.1398 43.7165 84.0246 44.2146 83.9094C45.2491 83.7174 46.3219 83.4101 47.3564 83.0645C51.4177 81.6436 55.2108 79.5315 58.5824 76.8049C60.2682 75.4224 61.8391 73.8863 63.1801 72.1198C63.8315 71.2366 64.4445 70.3149 64.9809 69.278C65.5173 68.2796 65.9387 67.2427 66.2453 66.129C66.3985 65.5914 66.5135 65.0154 66.6284 64.4393C66.705 63.8633 66.7817 63.2872 66.7817 62.7112C66.82 61.5591 66.705 60.3687 66.4751 59.255C66.0154 57.0661 65.1725 54.8003 63.6016 52.9186C62.8353 51.9969 61.8774 51.1521 60.843 50.5376C59.8085 49.9232 58.659 49.4624 57.5096 49.1551C57.3691 49.127 57.3633 48.9296 57.5026 48.8961C58.9875 48.5391 60.5205 48.5596 61.9924 49.0399C63.6782 49.5776 65.2491 50.7296 66.5901 52.1121C67.2414 52.8034 67.8544 53.533 68.3142 54.3395C68.5824 54.7235 68.7357 55.1843 68.9656 55.6068C69.1188 56.0292 69.3104 56.49 69.4253 56.9508C70.5364 60.6375 69.9617 64.7849 68.659 68.6252C67.318 72.4654 65.3257 76.1137 62.797 79.3395C62.1456 80.1459 61.4943 80.8756 60.728 81.5668C60.3832 81.9124 60 82.2965 59.6169 82.6037C59.2338 82.9493 58.8506 83.2949 58.4292 83.6021C56.8583 84.9462 55.1341 86.0983 53.3717 87.1352C49.8085 89.1705 45.8621 90.5914 41.7625 91.2826C37.6629 91.9739 33.4866 91.8971 29.3487 91.2826L26.2453 90.745C25.2491 90.5146 24.2146 90.2074 23.2184 89.977C22.7204 89.8233 22.2223 89.7081 21.7242 89.5545L20.2299 89.0553L17.2797 88.0184L20.1916 89.1705L21.6476 89.7465C22.1456 89.9002 22.6437 90.0538 23.1418 90.2074C24.138 90.5146 25.1341 90.8218 26.1686 91.0906L29.2338 91.7435C33.3717 92.5115 37.6629 92.7419 41.8391 92.1659C46.0537 91.6283 50.1533 90.2842 53.9464 88.2873C55.8238 87.2504 57.6246 86.1367 59.3104 84.7926C59.7318 84.4854 60.1533 84.1398 60.5748 83.7942C60.9962 83.4485 61.3794 83.1029 61.8008 82.7573C62.6054 82.0661 63.3717 81.2596 64.0997 80.4531C66.8966 77.1505 69.1188 73.4255 70.6514 69.3932C71.4177 67.3579 71.9924 65.2458 72.2606 63.0184C72.4138 61.9048 72.4521 60.7911 72.4138 59.6774C72.3755 58.5637 72.2223 57.4117 71.9157 56.298C71.8008 55.722 71.5709 55.1843 71.3793 54.6467C71.1495 54.1091 70.9196 53.5714 70.6514 53.0722C70.115 52.0353 69.387 51.1137 68.659 50.2688C67.1648 48.6175 65.2874 47.0814 63.0269 46.2366C61.8774 45.8141 60.6897 45.5837 59.4636 45.5837C58.2376 45.5837 57.0499 45.7757 55.9004 46.083C55.7636 46.1104 55.6606 45.9618 55.7607 45.8647C56.8487 44.8095 58.1955 44.0475 59.6935 43.7404C61.4177 43.3564 63.3717 43.5484 65.2108 44.086C66.1303 44.3548 67.0115 44.6621 67.8161 45.1613C68.2376 45.3533 68.6207 45.6605 69.0039 45.9293C69.3487 46.2366 69.7702 46.5054 70.0767 46.851C72.8736 49.4624 74.4445 53.3794 75.2491 57.2965C76.0154 61.2903 76.1303 65.4762 75.5556 69.5084C75.4023 70.5069 75.2108 71.467 74.9043 72.4654C74.751 72.9647 74.5977 73.4639 74.4445 73.9247C74.2912 74.424 74.138 74.9232 73.9464 75.384C73.2567 77.3425 72.3755 79.1859 71.341 80.9908C69.2721 84.5622 66.5901 87.788 63.41 90.4378C60.2299 93.0876 56.5518 95.1613 52.682 96.6974L49.7318 97.7727C48.7357 98.0799 47.7395 98.3487 46.705 98.6175C46.2069 98.7711 45.7089 98.9247 45.2108 99.0399L43.6782 99.3472L40.4215 100L43.5249 99.5008L45.0958 99.2704C45.5939 99.1551 46.1303 99.0399 46.6284 98.9247C47.6629 98.6943 48.659 98.4639 49.6935 98.1951L52.682 97.1966C56.6284 95.7373 60.4215 93.8172 63.7931 91.2058C67.1648 88.5945 70.0384 85.3687 72.2989 81.7588C73.41 79.9155 74.4062 78.0338 75.1725 76.0369C75.4023 75.5376 75.5556 75.0384 75.7472 74.5392C75.9387 74.0399 76.092 73.5407 76.2836 73.0031C76.6284 72.0046 76.8966 70.9293 77.0882 69.8541C77.8544 65.5914 77.8928 61.2519 77.2031 56.9508C76.82 54.8003 76.2836 52.6882 75.4023 50.6528C74.9809 49.6544 74.4445 48.6175 73.8315 47.6959C73.2184 46.7358 72.5288 45.8525 71.6859 45.0461C71.3027 44.6237 70.843 44.278 70.4215 43.894C69.9617 43.5484 69.502 43.2028 69.0039 42.9339C68.046 42.3195 66.9349 41.8587 65.8621 41.5131C63.7165 40.8218 61.341 40.4378 58.9656 40.8986C57.7778 41.129 56.5901 41.5131 55.5556 42.1275C54.4828 42.7419 53.5633 43.51 52.7204 44.3548C52.6038 44.4716 52.4335 44.3833 52.4792 44.2248C52.9032 42.7538 53.6642 41.4246 54.7893 40.3994C56.092 39.1705 57.8545 38.4025 59.7318 37.9032C60.6514 37.6728 61.5709 37.5192 62.5288 37.5192C62.9885 37.4808 63.4483 37.5576 63.9464 37.5576C64.4062 37.6344 64.8659 37.6728 65.3257 37.788C69.0805 38.6329 72.3755 41.2058 75.0575 44.2012C77.7395 47.235 79.9234 50.8064 81.456 54.6083C81.8391 55.5684 82.1456 56.49 82.3755 57.5269C82.5288 58.0261 82.6437 58.5253 82.7203 59.0246C82.8353 59.5238 82.9502 60.023 83.0269 60.5607C83.41 62.596 83.5633 64.6313 83.6016 66.7051C83.6016 70.8141 82.9119 74.9616 81.456 78.8786C80.0384 82.7957 77.8928 86.4055 75.3257 89.7081L73.3334 92.1275C72.6054 92.8955 71.8774 93.6252 71.1495 94.3932C70.7663 94.7773 70.4215 95.1613 70.0384 95.5069L68.8506 96.5438L66.4751 98.6175L68.9272 96.6206L70.1533 95.6221C70.5364 95.2765 70.9196 94.8925 71.3027 94.5469C72.069 93.8172 72.8353 93.0876 73.5633 92.3579L75.6705 89.977C78.3525 86.7127 80.6514 83.1413 82.2606 79.1859C83.8698 75.2688 84.751 71.0061 84.8659 66.7435C84.9043 64.5929 84.8276 62.4424 84.4828 60.3303C84.4445 59.7926 84.3295 59.255 84.2146 58.7558C84.138 58.2181 84.023 57.7189 83.9081 57.1813C83.7165 56.1444 83.3717 55.0691 83.0269 54.0323C81.5326 49.9616 79.387 46.1982 76.6667 42.8571C75.2874 41.2058 73.7165 39.6313 71.9541 38.3256C71.0728 37.6728 70.115 37.0584 69.1188 36.5591C68.1227 36.0599 67.0499 35.6375 65.9387 35.3303C65.4023 35.1767 64.8276 35.0998 64.2529 34.9846C63.6782 34.9462 63.1035 34.831 62.5288 34.8694C61.3794 34.831 60.1916 34.9846 59.0805 35.215C56.8966 35.7143 54.6744 36.5591 52.797 38.172C51.8774 38.9401 51.0728 39.9002 50.4598 40.9754C49.8468 42.0123 49.4253 43.1644 49.1571 44.3548C49.1261 44.5102 48.9275 44.5182 48.8873 44.3649C48.4964 42.8761 48.486 41.3421 48.9656 39.9002C49.502 38.172 50.6131 36.6359 51.9924 35.2534C52.682 34.6006 53.3717 33.9862 54.2146 33.5253C54.5977 33.2565 55.0192 33.0645 55.4407 32.8725C55.9004 32.6805 56.3219 32.4885 56.7817 32.3733C60.4215 31.2212 64.5977 31.7588 68.4292 33.0261C72.2606 34.2934 75.9387 36.2903 79.1571 38.7865C79.9617 39.4393 80.6897 40.0922 81.4177 40.8218C81.8008 41.1674 82.1456 41.5515 82.4905 41.9355C82.8353 42.3195 83.1801 42.7035 83.5249 43.0876C84.8659 44.6621 86.0537 46.3518 87.1265 48.1183C89.1954 51.6513 90.6897 55.6068 91.3793 59.6774C92.1073 63.7865 92.069 67.9724 91.5326 72.1198L91.0345 75.2304C90.8046 76.2673 90.5364 77.2657 90.2682 78.2642C90.1533 78.7634 90.0384 79.3011 89.8851 79.8003L89.387 81.298L88.3908 84.2934L89.502 81.3364L90.0384 79.8387C90.1916 79.3395 90.3449 78.8402 90.4598 78.341C90.7663 77.3426 91.0728 76.3057 91.3027 75.3072L91.9157 72.1966C92.6437 67.9339 92.8353 63.6329 92.2223 59.447Z" fill="url(#paint0_radial_531:13)" stroke="white" stroke-width="1.2" mask="url(#path-6-inside-2_531:13)"/>
<path d="M79.9608 20.9593C82.5763 22.0342 85.0661 23.4276 87.3945 25.0549C85.118 23.3344 82.6801 21.8318 80.0689 20.6657L80.0667 20.6647C76.2335 18.9149 72.0553 17.9242 67.8352 17.619C65.7003 17.5045 63.5754 17.5052 61.4936 17.7708L61.4853 17.7719L61.477 17.7724C60.9536 17.8099 60.4273 17.8851 59.9305 17.9617L59.9273 17.9622C59.3882 18.0394 58.8648 18.1145 58.3815 18.2263L58.3698 18.229L58.3579 18.2308C57.3472 18.3809 56.2544 18.6823 55.2625 18.9882C52.8465 19.7706 50.5412 20.7711 48.3457 22.0248V23.6402C50.6142 22.1876 53.0766 20.9769 55.6071 20.0711C56.5767 19.7212 57.5477 19.4485 58.5582 19.2534L58.5582 19.2534C59.0526 19.139 59.5598 19.0217 60.0689 18.9432C60.2115 18.9212 60.3604 18.8947 60.5142 18.8673C60.8619 18.8053 61.2343 18.7389 61.6138 18.7109C63.6628 18.4019 65.7457 18.3252 67.8213 18.3637V18.3637L67.827 18.3639C71.9591 18.5187 76.1323 19.3702 79.9608 20.9593Z" fill="white" stroke="white" stroke-width="0.6"/>
<path d="M90.3829 37.7486C92.3544 40.0636 94.0159 42.664 95.3985 45.3988C94.1081 42.6021 92.5309 39.9439 90.6075 37.5132C87.9874 34.2019 84.7586 31.3839 81.1485 29.1744C79.3177 28.104 77.4201 27.1159 75.4523 26.3953L75.4523 26.3953L75.4475 26.3935C74.9477 26.2008 74.4593 26.0126 73.9728 25.8626L73.9629 25.8596L73.9533 25.8558C73.4675 25.6686 72.9793 25.5178 72.446 25.3651L72.4381 25.3628L72.4303 25.3601C71.458 25.0228 70.3673 24.7958 69.3354 24.6042C65.1161 23.9188 60.8215 23.919 56.565 24.6426C54.4416 25.0227 52.358 25.6304 50.3513 26.5031C49.642 26.823 48.9357 27.1749 48.2309 27.5898V29.8368C50.693 27.9861 53.7552 26.8193 56.8336 26.1658C60.8144 25.3136 65.0252 25.1589 69.1197 25.701L69.1197 25.7009L69.1244 25.7016C70.167 25.8564 71.1348 26.0502 72.1418 26.3217C72.6486 26.4392 73.1534 26.5949 73.6462 26.7469L73.6515 26.7485L73.6588 26.7508C74.1483 26.9018 74.6542 27.0578 75.1245 27.2534C77.0977 27.9136 78.9506 28.8044 80.7944 29.8054L80.7944 29.8053L80.7988 29.8078C84.4292 31.8594 87.7144 34.5316 90.3829 37.7486Z" fill="white" stroke="white" stroke-width="0.6"/>
<defs>
<radialGradient id="paint0_radial_531:13" cx="0" cy="0" r="1" gradientUnits="userSpaceOnUse" gradientTransform="translate(51.5297 51.6484) scale(48.2405 61.2846)">
<stop offset="0.177083" stop-color="white"/>
<stop offset="1" stop-color="white"/>
</radialGradient>
</defs>
</svg>
