<svg width="60" height="60" viewBox="0 0 60 60" fill="none" xmlns="http://www.w3.org/2000/svg">
<g clip-path="url(#clip0_531:2)">
<path d="M27.4484 27.2583V0.253696C27.4484 0.184572 27.4254 0.115444 27.3564 0.0693607C27.2875 0.0232773 27.2415 0.000240326 27.1725 0.000240326C27.1036 0.000240326 27.0346 0.0232773 26.9886 0.0693607L6.04609 21.0371L5.31046 21.7744L1.47138 25.6454L1.4254 25.6915L0.0690778 27.0509C0.0460893 27.074 0.0460893 27.074 0.0231008 27.097C0.000112249 27.1892 0.000112249 27.2813 0.0231008 27.3505C0.0231008 27.3735 0.0460893 27.3735 0.0460893 27.3735C0.0460893 27.3966 0.0690778 27.3966 0.0690778 27.4196C0.0920663 27.4426 0.115055 27.4657 0.138043 27.4657C0.161032 27.4887 0.207009 27.4887 0.252986 27.4887H27.1955C27.2415 27.4887 27.2875 27.4887 27.3105 27.4426C27.4024 27.4196 27.4484 27.3505 27.4484 27.2583Z" fill="white"/>
<path d="M0.161133 27.4885C0.184121 27.5115 0.230098 27.5115 0.276075 27.5115C0.230098 27.5115 0.184121 27.4885 0.161133 27.4885Z" fill="white"/>
<mask id="path-3-inside-1_531:2" fill="white">
<path d="M37.4713 1.17514L35.6092 1.4286L34.6667 1.5438C34.3678 1.58989 34.046 1.65901 33.7471 1.72814C33.1264 1.86638 32.5058 1.98159 31.9081 2.14288L30.092 2.69587C29.6782 2.83412 29.2644 2.99541 28.8506 3.1567V3.47928C29.2874 3.29495 29.7241 3.11062 30.1839 2.92629L31.954 2.32721C32.5517 2.16592 33.1724 2.02767 33.7701 1.86638C34.069 1.79726 34.3908 1.70509 34.6897 1.63597L35.6092 1.47468L37.4713 1.17514Z"/>
</mask>
<path d="M37.4713 1.17514L35.6092 1.4286L34.6667 1.5438C34.3678 1.58989 34.046 1.65901 33.7471 1.72814C33.1264 1.86638 32.5058 1.98159 31.9081 2.14288L30.092 2.69587C29.6782 2.83412 29.2644 2.99541 28.8506 3.1567V3.47928C29.2874 3.29495 29.7241 3.11062 30.1839 2.92629L31.954 2.32721C32.5517 2.16592 33.1724 2.02767 33.7701 1.86638C34.069 1.79726 34.3908 1.70509 34.6897 1.63597L35.6092 1.47468L37.4713 1.17514Z" fill="white"/>
<path d="M37.4713 1.17514L37.3904 0.580622L37.5666 1.76752L37.4713 1.17514ZM35.6092 1.4286L35.6901 2.02317L35.682 2.02416L35.6092 1.4286ZM34.6667 1.5438L34.5752 0.950812L34.5845 0.949378L34.5939 0.948236L34.6667 1.5438ZM33.7471 1.72814L33.8824 2.31272L33.8776 2.31378L33.7471 1.72814ZM31.9081 2.14288L31.7333 1.5689L31.7425 1.5661L31.7517 1.5636L31.9081 2.14288ZM30.092 2.69587L29.9018 2.12679L29.9095 2.12424L29.9172 2.12189L30.092 2.69587ZM28.8506 3.1567H28.2506V2.7466L28.6327 2.59767L28.8506 3.1567ZM28.8506 3.47928L29.0839 4.03207L28.2506 4.38373V3.47928H28.8506ZM30.1839 2.92629L29.9606 2.36938L29.976 2.36324L29.9916 2.35795L30.1839 2.92629ZM31.954 2.32721L31.7617 1.75888L31.7795 1.75284L31.7977 1.74793L31.954 2.32721ZM33.7701 1.86638L33.6138 1.2871L33.6243 1.28427L33.6349 1.28182L33.7701 1.86638ZM34.6897 1.63597L34.5545 1.0514L34.5701 1.04777L34.586 1.04499L34.6897 1.63597ZM35.6092 1.47468L35.5055 0.883642L35.5139 0.882295L35.6092 1.47468ZM37.5522 1.76966L35.6901 2.02311L35.5283 0.834079L37.3904 0.580622L37.5522 1.76966ZM35.682 2.02416L34.7395 2.13937L34.5939 0.948236L35.5364 0.83303L35.682 2.02416ZM34.7581 2.1368C34.4815 2.17945 34.1768 2.24459 33.8823 2.3127L33.6119 1.14357C33.9152 1.07343 34.2541 1.00033 34.5752 0.950812L34.7581 2.1368ZM33.8776 2.31378C33.2278 2.4585 32.6458 2.56527 32.0644 2.72216L31.7517 1.5636C32.3658 1.39791 33.0251 1.27426 33.6167 1.14249L33.8776 2.31378ZM32.0828 2.71686L30.2667 3.26985L29.9172 2.12189L31.7333 1.5689L32.0828 2.71686ZM30.2821 3.26495C29.8847 3.39772 29.4848 3.55348 29.0685 3.71573L28.6327 2.59767C29.044 2.43734 29.4716 2.27052 29.9018 2.12679L30.2821 3.26495ZM29.4506 3.1567V3.47928H28.2506V3.1567H29.4506ZM28.6173 2.92649C29.0534 2.74244 29.4951 2.55604 29.9606 2.36938L30.4072 3.4832C29.9532 3.6652 29.5213 3.84746 29.0839 4.03207L28.6173 2.92649ZM29.9916 2.35795L31.7617 1.75888L32.1464 2.89554L30.3763 3.49462L29.9916 2.35795ZM31.7977 1.74793C32.1042 1.66523 32.4154 1.58874 32.7188 1.51415C33.0246 1.43898 33.3226 1.36569 33.6138 1.2871L33.9264 2.44566C33.62 2.52836 33.3088 2.60485 33.0053 2.67945C32.6996 2.75462 32.4016 2.8279 32.1104 2.90649L31.7977 1.74793ZM33.6349 1.28182C33.7751 1.2494 33.9223 1.21119 34.079 1.17046C34.2326 1.13054 34.3958 1.08811 34.5545 1.0514L34.8249 2.22053C34.6847 2.25295 34.5375 2.29116 34.3808 2.33189C34.2272 2.37181 34.064 2.41424 33.9053 2.45095L33.6349 1.28182ZM34.586 1.04499L35.5055 0.883701L35.7129 2.06566L34.7933 2.22695L34.586 1.04499ZM35.5139 0.882295L37.376 0.582756L37.5666 1.76752L35.7045 2.06706L35.5139 0.882295Z" fill="white" mask="url(#path-3-inside-1_531:2)"/>
<path d="M29.1506 8.35547V8.57405C29.2555 8.51508 29.3593 8.4583 29.4616 8.40242L29.4653 8.40038L29.4653 8.40037L29.4659 8.40005C31.0767 7.5241 32.8142 6.84968 34.6231 6.42367C32.8128 6.78923 31.0455 7.40377 29.3758 8.24056C29.2956 8.28076 29.2199 8.31875 29.1506 8.35547Z" fill="white" stroke="white" stroke-width="0.6"/>
<mask id="path-6-inside-2_531:2" fill="white">
<path d="M55.3331 35.6682C54.9883 33.1336 54.1607 30.6682 52.9423 28.4101C52.3216 27.2811 51.609 26.1982 50.8044 25.2074C50.6205 24.9539 50.3906 24.7005 50.1837 24.47C49.9768 24.2166 49.7699 23.9862 49.54 23.7558C49.1262 23.2719 48.6435 22.8111 48.1377 22.3963C46.1377 20.7373 43.9078 19.424 41.4481 18.5253C40.2297 18.0876 38.9653 17.7419 37.632 17.6037C36.9653 17.5346 36.2986 17.4885 35.632 17.5576C34.9653 17.6037 34.2756 17.6959 33.609 17.8802C33.2642 17.9723 32.9423 18.0876 32.6205 18.2028C32.2986 18.341 31.9768 18.4793 31.6779 18.6636C31.0573 18.9862 30.5055 19.424 29.9998 19.8848C29.563 20.2995 29.1492 20.7373 28.7814 21.2212V27.2581C28.7814 28.1567 28.0458 28.894 27.1492 28.894H25.9998C26.1114 29.0246 25.9944 29.2063 25.8397 29.1316C25.6927 29.0606 25.5474 28.9814 25.4021 28.894H22.8044C22.8504 28.9401 22.8733 29.0092 22.9193 29.0553C23.3791 29.6313 23.9078 30.1382 24.5285 30.53C25.1492 30.9217 25.8159 31.2212 26.5055 31.4055C26.5861 31.4217 26.5879 31.5354 26.5076 31.5526C25.599 31.7473 24.6798 31.7148 23.8159 31.4055C22.8044 31.0599 21.8848 30.3456 21.1032 29.4931C20.9423 29.3088 20.7814 29.1014 20.6205 28.9171H18.7124C19.0113 29.5392 19.4251 30.0922 19.8619 30.5991C20.7354 31.6129 21.8389 32.5576 23.1952 33.0876C23.8619 33.341 24.5975 33.5253 25.3331 33.5484C26.0688 33.5714 26.7814 33.4793 27.494 33.2949C27.5945 33.2748 27.6514 33.3672 27.5757 33.4363C26.902 34.0515 26.076 34.4901 25.1952 34.6544C24.1377 34.8617 22.9883 34.7005 21.8848 34.3779C21.3331 34.1935 20.8274 33.9862 20.3446 33.6866C20.0917 33.5484 19.8619 33.3641 19.632 33.2258C19.4251 33.0415 19.1952 32.8802 18.9883 32.6498C17.9538 31.6359 17.2182 30.3226 16.7124 28.9171H15.2871C15.4251 29.3779 15.586 29.8387 15.7699 30.2995C16.0228 30.9217 16.2986 31.5207 16.6665 32.0968C17.0113 32.6728 17.4251 33.2258 17.9078 33.7097C18.1377 33.9631 18.3906 34.1935 18.6665 34.424C18.9423 34.6313 19.2182 34.8617 19.517 35.0461C20.0917 35.4147 20.7354 35.7143 21.3791 35.9447C22.6435 36.3825 24.0687 36.6359 25.517 36.4055C26.2297 36.2903 26.9423 36.0599 27.586 35.7143C28.2297 35.3687 28.8044 34.9078 29.3331 34.424C29.3976 34.3593 29.5026 34.4198 29.4755 34.5071C29.2016 35.3924 28.7228 36.1757 28.0228 36.7742C27.2182 37.4885 26.1607 37.9263 25.0113 38.2028C24.4596 38.318 23.9078 38.4101 23.3331 38.3871C23.0573 38.3871 22.7584 38.3641 22.4825 38.341C22.2067 38.2949 21.9308 38.2488 21.655 38.1797C19.4251 37.6037 17.471 36.0369 15.9078 34.1935C14.5745 32.5806 13.471 30.7834 12.6435 28.894H11.494C12.3216 31.0829 13.4481 33.1106 14.8963 34.9539C15.7009 35.9677 16.6205 36.9355 17.655 37.7419C18.1837 38.1567 18.7354 38.5253 19.3331 38.8479C19.9308 39.1705 20.5515 39.447 21.2182 39.6313C21.54 39.7465 21.8848 39.7926 22.2297 39.8617C22.5745 39.9078 22.9193 39.977 23.2642 39.977C23.9538 40.023 24.6665 39.9309 25.3331 39.8157C26.6435 39.5622 27.9998 39.0553 29.1262 38.1336C29.6779 37.6728 30.1837 37.1198 30.5745 36.4977C30.9653 35.8756 31.2412 35.1843 31.4251 34.4931C31.4419 34.4089 31.5598 34.4055 31.5795 34.4891C31.7892 35.382 31.7585 36.3039 31.471 37.1889C31.1262 38.2028 30.4366 39.1244 29.586 39.9309C29.1722 40.3226 28.7354 40.6682 28.2297 40.9447C27.9998 41.106 27.7239 41.1982 27.471 41.3364C27.1952 41.4286 26.9423 41.5438 26.6665 41.6129C24.4596 42.2581 21.9768 41.8664 19.7009 41.0599C17.4251 40.2074 15.2182 38.9631 13.3331 37.4194C12.8504 37.0276 12.4366 36.6129 11.9998 36.1521C11.7929 35.9217 11.586 35.6912 11.3791 35.4608C11.1722 35.2304 10.9653 35 10.7814 34.7465C9.99979 33.8018 9.33312 32.7419 8.71243 31.682C8.20668 30.7834 7.7699 29.8387 7.42507 28.871H6.73542C7.08025 29.9539 7.54002 31.0138 8.04576 32.0507C8.64346 33.1797 9.31013 34.2857 10.0917 35.2995C10.2756 35.553 10.4825 35.8065 10.6894 36.0599C10.8963 36.3134 11.1032 36.5668 11.3101 36.7972C11.7239 37.2811 12.2067 37.765 12.6665 38.1797C14.6205 39.8848 16.8274 41.2442 19.2412 42.212C20.4596 42.6728 21.7239 43.0645 23.0343 43.2258C23.7009 43.318 24.3676 43.3641 25.0343 43.318C25.7009 43.2949 26.3906 43.2028 27.0573 43.0415C27.4021 42.9724 27.7239 42.8341 28.0458 42.7419C28.3676 42.6037 28.6894 42.4885 28.9883 42.3041C29.609 41.9816 30.1837 41.5668 30.6894 41.129C31.7009 40.2304 32.6205 39.1244 33.1262 37.765C33.3791 37.0968 33.54 36.3594 33.563 35.6221C33.586 34.8848 33.4711 34.1705 33.2871 33.4793C33.2619 33.378 33.3609 33.3179 33.4324 33.394C34.0638 34.0658 34.5024 34.8764 34.6665 35.7604C34.8963 36.7972 34.7584 37.9493 34.4136 39.0783C34.2527 39.6313 34.0458 40.1613 33.7469 40.6452C33.609 40.8986 33.4481 41.129 33.2871 41.3594C33.1032 41.5668 32.9423 41.7972 32.7354 42.0046C31.1492 43.6636 28.8044 44.5853 26.4366 45.0461C24.0458 45.4839 21.54 45.53 19.1262 45.1382C18.5055 45.0461 17.9538 44.9078 17.3561 44.7235C17.0573 44.6313 16.7584 44.5392 16.4596 44.447C16.1607 44.3318 15.8848 44.2627 15.586 44.1244C14.4366 43.6866 13.3101 43.1336 12.2527 42.5115C10.1377 41.2442 8.20668 39.6083 6.66645 37.6728C5.10323 35.7373 3.90783 33.5023 2.98829 31.1751L2.3676 29.4009C2.32163 29.2166 2.27565 29.0553 2.22967 28.871H2.06875C2.11473 29.0553 2.16071 29.2627 2.20668 29.447L2.7814 31.2442C3.60898 33.6406 4.75841 35.9217 6.29864 37.9724C7.81588 40.023 9.74691 41.7742 11.8848 43.1567C12.9653 43.8249 14.0917 44.447 15.2871 44.9309C15.586 45.0691 15.8848 45.1613 16.1837 45.2765C16.4825 45.3917 16.7814 45.5069 17.0802 45.5991C17.6779 45.8065 18.3216 45.9908 18.9653 46.106C21.517 46.5899 24.1147 46.6359 26.6665 46.2673C27.9538 46.0599 29.2182 45.7373 30.4596 45.2304C31.0802 44.977 31.6779 44.6774 32.2297 44.3088C32.8044 43.9631 33.3561 43.5253 33.8389 43.0415C34.0917 42.8111 34.3216 42.5346 34.5285 42.2811C34.7354 42.0046 34.9653 41.7281 35.1262 41.4286C35.494 40.8525 35.7699 40.2074 35.9998 39.5392C36.4136 38.2488 36.6664 36.8433 36.4136 35.3917C36.2986 34.6774 36.0458 33.9631 35.7009 33.318C35.3561 32.6728 34.8963 32.0968 34.3906 31.5899C34.3276 31.5425 34.3934 31.4235 34.469 31.4458C35.3491 31.7048 36.1423 32.1807 36.7354 32.8571C37.4481 33.6636 37.9078 34.7235 38.1837 35.8525C38.3216 36.4055 38.3906 36.9585 38.3906 37.5346C38.4136 37.8111 38.3676 38.0876 38.3446 38.3871C38.2986 38.6636 38.2756 38.9401 38.1837 39.2396C37.632 41.4747 36.0917 43.4562 34.2756 45.0461C32.4366 46.6359 30.2756 47.9263 27.9998 48.8249C27.4251 49.0323 26.8733 49.2166 26.2527 49.3548C25.9538 49.424 25.655 49.4931 25.3561 49.5622C25.0573 49.6313 24.7584 49.7005 24.4596 49.7235C23.2412 49.9309 21.9998 50.023 20.7814 50.023C18.3216 50.0922 15.8619 49.6313 13.54 48.7327C11.2182 47.8571 9.05726 46.5438 7.10323 44.977L5.67795 43.7558C5.21818 43.318 4.7814 42.8571 4.34461 42.4194C4.11473 42.1889 3.90783 41.9816 3.67795 41.7512L3.08025 41.0369L1.83887 39.5853L3.01128 41.0599L3.60898 41.7972C3.81588 42.0276 4.04576 42.2581 4.25266 42.4885C4.68944 42.9493 5.10323 43.4101 5.54002 43.871L6.94232 45.1613C8.87335 46.7972 11.0113 48.2028 13.3561 49.1935C15.7009 50.1843 18.2297 50.7373 20.8044 50.8525C22.0688 50.8986 23.3791 50.8525 24.6435 50.6682C24.9653 50.6452 25.2871 50.576 25.586 50.53C25.9078 50.4839 26.2297 50.4147 26.5285 50.3456C27.1492 50.2304 27.7929 50.0461 28.4136 49.8387C30.8504 48.9862 33.1262 47.7189 35.1492 46.0829C36.1607 45.2535 37.1032 44.3318 37.9078 43.2719C38.2986 42.7419 38.6665 42.1889 38.9883 41.5668C39.3101 40.9677 39.563 40.3456 39.7469 39.6774C39.8389 39.3548 39.9078 39.0092 39.9768 38.6636C40.0228 38.318 40.0687 37.9723 40.0687 37.6267C40.0917 36.9355 40.0228 36.2212 39.8848 35.553C39.609 34.2396 39.1032 32.8802 38.1607 31.7512C37.7009 31.1982 37.1262 30.6912 36.5055 30.3226C35.8848 29.9539 35.1952 29.6774 34.5055 29.4931C34.4212 29.4762 34.4178 29.3578 34.5013 29.3377C35.3923 29.1234 36.3121 29.1358 37.1952 29.424C38.2067 29.7465 39.1492 30.4378 39.9538 31.2673C40.3446 31.682 40.7124 32.1198 40.9883 32.6037C41.1492 32.8341 41.2412 33.1106 41.3791 33.3641C41.471 33.6175 41.586 33.894 41.655 34.1705C42.3216 36.3825 41.9768 38.871 41.1952 41.1751C40.3906 43.4793 39.1952 45.6682 37.6779 47.6037C37.2871 48.0876 36.8963 48.5253 36.4366 48.9401C36.2297 49.1475 35.9998 49.3779 35.7699 49.5622C35.54 49.7696 35.3101 49.977 35.0573 50.1613C34.1147 50.9677 33.0802 51.659 32.0228 52.2811C29.8848 53.5023 27.517 54.3548 25.0573 54.7696C22.5975 55.1843 20.0917 55.1382 17.609 54.7696L15.7469 54.447C15.1492 54.3088 14.5285 54.1244 13.9308 53.9862C13.632 53.894 13.3331 53.8249 13.0343 53.7327L12.1377 53.4332L10.3676 52.8111L12.1147 53.5023L12.9883 53.8479C13.2871 53.9401 13.586 54.0323 13.8848 54.1244C14.4825 54.3088 15.0802 54.4931 15.7009 54.6544L17.54 55.0461C20.0228 55.5069 22.5975 55.6452 25.1032 55.2995C27.632 54.977 30.0917 54.1705 32.3676 52.9724C33.494 52.3502 34.5745 51.682 35.586 50.8756C35.8389 50.6912 36.0917 50.4839 36.3446 50.2765C36.5975 50.0691 36.8274 49.8618 37.0802 49.6544C37.563 49.2396 38.0228 48.7558 38.4596 48.2719C40.1377 46.2903 41.471 44.0553 42.3906 41.6359C42.8504 40.4147 43.1952 39.1475 43.3561 37.8111C43.4481 37.1429 43.471 36.4747 43.4481 35.8065C43.4251 35.1383 43.3331 34.447 43.1492 33.7788C43.0802 33.4332 42.9423 33.1106 42.8274 32.788C42.6894 32.4654 42.5515 32.1429 42.3906 31.8433C42.0687 31.2212 41.632 30.6682 41.1952 30.1613C40.2986 29.1705 39.1722 28.2488 37.8159 27.7419C37.1262 27.4885 36.4136 27.3502 35.6779 27.3502C34.9423 27.3502 34.2297 27.4654 33.54 27.6498C33.4579 27.6662 33.3961 27.5771 33.4562 27.5188C34.109 26.8857 34.917 26.4285 35.8159 26.2442C36.8504 26.0138 38.0228 26.129 39.1262 26.4516C39.6779 26.6129 40.2067 26.7972 40.6894 27.0968C40.9423 27.212 41.1722 27.3963 41.4021 27.5576C41.609 27.7419 41.8619 27.9032 42.0458 28.1106C43.7239 29.6774 44.6664 32.0276 45.1492 34.3779C45.609 36.7742 45.6779 39.2857 45.3331 41.7051C45.2412 42.3041 45.1262 42.8802 44.9423 43.4793C44.8504 43.7788 44.7584 44.0783 44.6664 44.3548C44.5745 44.6544 44.4825 44.9539 44.3676 45.2304C43.9538 46.4055 43.4251 47.5115 42.8044 48.5945C41.563 50.7373 39.9538 52.6728 38.0458 54.2627C36.1377 55.8525 33.9308 57.0968 31.609 58.0184L29.8389 58.6636C29.2412 58.8479 28.6435 59.0092 28.0228 59.1705C27.7239 59.2627 27.4251 59.3548 27.1262 59.424L26.2067 59.6083L24.2527 60L26.1147 59.7005L27.0573 59.5622C27.3561 59.4931 27.6779 59.424 27.9768 59.3548C28.5975 59.2166 29.1952 59.0783 29.8159 58.9171L31.609 58.318C33.9768 57.4424 36.2527 56.2903 38.2756 54.7235C40.2986 53.1567 42.0228 51.2212 43.3791 49.0553C44.0458 47.9493 44.6435 46.8203 45.1032 45.6221C45.2412 45.3226 45.3331 45.023 45.4481 44.7235C45.563 44.424 45.655 44.1244 45.7699 43.8018C45.9768 43.2028 46.1377 42.5576 46.2527 41.9124C46.7124 39.3548 46.7354 36.7512 46.3216 34.1705C46.0917 32.8802 45.7699 31.6129 45.2412 30.3917C44.9883 29.7926 44.6665 29.1705 44.2986 28.6175C43.9308 28.0415 43.517 27.5115 43.0113 27.0276C42.7814 26.7742 42.5055 26.5668 42.2527 26.3364C41.9768 26.129 41.7009 25.9217 41.4021 25.7604C40.8274 25.3917 40.1607 25.1152 39.517 24.9078C38.2297 24.4931 36.8044 24.2627 35.3791 24.5392C34.6665 24.6774 33.9538 24.9078 33.3331 25.2765C32.6894 25.6452 32.1377 26.106 31.632 26.6129C31.5621 26.683 31.4599 26.63 31.4873 26.5349C31.7417 25.6523 32.1983 24.8547 32.8733 24.2396C33.655 23.5023 34.7124 23.0415 35.8389 22.7419C36.3906 22.6037 36.9423 22.5115 37.517 22.5115C37.7929 22.4885 38.0687 22.5346 38.3676 22.5346C38.6435 22.5806 38.9193 22.6037 39.1952 22.6728C41.4481 23.1797 43.4251 24.7235 45.0343 26.5207C46.6435 28.341 47.9538 30.4839 48.8733 32.765C49.1032 33.341 49.2871 33.894 49.4251 34.5161C49.517 34.8157 49.586 35.1152 49.632 35.4147C49.7009 35.7143 49.7699 36.0138 49.8159 36.3364C50.0458 37.5576 50.1377 38.7788 50.1607 40.023C50.1607 42.4885 49.7469 44.977 48.8733 47.3272C48.0228 49.6774 46.7354 51.8433 45.1952 53.8249L43.9998 55.2765C43.563 55.7373 43.1262 56.1751 42.6894 56.6359C42.4596 56.8664 42.2527 57.0968 42.0228 57.3041L41.3101 57.9263L39.8848 59.1705L41.3561 57.9724L42.0917 57.3733C42.3216 57.1659 42.5515 56.9355 42.7814 56.7281C43.2412 56.2903 43.7009 55.8525 44.1377 55.4147L45.4021 53.9862C47.0113 52.0276 48.3906 49.8848 49.3561 47.5115C50.3216 45.1613 50.8504 42.6037 50.9193 40.0461C50.9423 38.7558 50.8963 37.4654 50.6894 36.1982C50.6664 35.8756 50.5975 35.553 50.5285 35.2535C50.4825 34.9309 50.4136 34.6313 50.3446 34.3088C50.2297 33.6866 50.0228 33.0415 49.8159 32.4194C48.9193 29.977 47.632 27.7189 45.9998 25.7143C45.1722 24.7235 44.2297 23.7788 43.1722 22.9954C42.6435 22.6037 42.0687 22.235 41.471 21.9355C40.8733 21.6359 40.2297 21.3825 39.563 21.1982C39.2412 21.106 38.8963 21.0599 38.5515 20.9908C38.2067 20.9677 37.8619 20.8986 37.517 20.9217C36.8274 20.8986 36.1147 20.9908 35.4481 21.129C34.1377 21.4286 32.8044 21.9355 31.6779 22.9032C31.1262 23.3641 30.6435 23.9401 30.2756 24.5853C29.9078 25.2074 29.655 25.8986 29.494 26.6129C29.4754 26.7061 29.3563 26.7109 29.3321 26.619C29.0976 25.7256 29.0914 24.8052 29.3791 23.9401C29.7009 22.9032 30.3676 21.9816 31.1952 21.1521C31.609 20.7604 32.0228 20.3917 32.5285 20.1152C32.7584 19.9539 33.0113 19.8387 33.2642 19.7235C33.54 19.6083 33.7929 19.4931 34.0687 19.424C36.2527 18.7327 38.7584 19.0553 41.0573 19.8157C43.3561 20.576 45.563 21.7742 47.494 23.2719C47.9768 23.6636 48.4136 24.0553 48.8504 24.4931C49.0802 24.7005 49.2871 24.9309 49.494 25.1613C49.7009 25.3917 49.9078 25.6221 50.1147 25.8525C50.9193 26.7972 51.632 27.8111 52.2756 28.871C53.517 30.9908 54.4136 33.3641 54.8274 35.8065C55.2641 38.2719 55.2412 40.7834 54.9193 43.2719L54.6205 45.1382C54.4825 45.7604 54.3216 46.3594 54.1607 46.9585C54.0917 47.2581 54.0228 47.5806 53.9308 47.8802L53.632 48.7788L53.0343 50.576L53.7009 48.8018L54.0228 47.9032C54.1147 47.6037 54.2067 47.3041 54.2756 47.0046C54.4596 46.4055 54.6435 45.7834 54.7814 45.1843L55.1492 43.318C55.586 40.7604 55.7009 38.1797 55.3331 35.6682Z"/>
</mask>
<path d="M55.3331 35.6682C54.9883 33.1336 54.1607 30.6682 52.9423 28.4101C52.3216 27.2811 51.609 26.1982 50.8044 25.2074C50.6205 24.9539 50.3906 24.7005 50.1837 24.47C49.9768 24.2166 49.7699 23.9862 49.54 23.7558C49.1262 23.2719 48.6435 22.8111 48.1377 22.3963C46.1377 20.7373 43.9078 19.424 41.4481 18.5253C40.2297 18.0876 38.9653 17.7419 37.632 17.6037C36.9653 17.5346 36.2986 17.4885 35.632 17.5576C34.9653 17.6037 34.2756 17.6959 33.609 17.8802C33.2642 17.9723 32.9423 18.0876 32.6205 18.2028C32.2986 18.341 31.9768 18.4793 31.6779 18.6636C31.0573 18.9862 30.5055 19.424 29.9998 19.8848C29.563 20.2995 29.1492 20.7373 28.7814 21.2212V27.2581C28.7814 28.1567 28.0458 28.894 27.1492 28.894H25.9998C26.1114 29.0246 25.9944 29.2063 25.8397 29.1316C25.6927 29.0606 25.5474 28.9814 25.4021 28.894H22.8044C22.8504 28.9401 22.8733 29.0092 22.9193 29.0553C23.3791 29.6313 23.9078 30.1382 24.5285 30.53C25.1492 30.9217 25.8159 31.2212 26.5055 31.4055C26.5861 31.4217 26.5879 31.5354 26.5076 31.5526C25.599 31.7473 24.6798 31.7148 23.8159 31.4055C22.8044 31.0599 21.8848 30.3456 21.1032 29.4931C20.9423 29.3088 20.7814 29.1014 20.6205 28.9171H18.7124C19.0113 29.5392 19.4251 30.0922 19.8619 30.5991C20.7354 31.6129 21.8389 32.5576 23.1952 33.0876C23.8619 33.341 24.5975 33.5253 25.3331 33.5484C26.0688 33.5714 26.7814 33.4793 27.494 33.2949C27.5945 33.2748 27.6514 33.3672 27.5757 33.4363C26.902 34.0515 26.076 34.4901 25.1952 34.6544C24.1377 34.8617 22.9883 34.7005 21.8848 34.3779C21.3331 34.1935 20.8274 33.9862 20.3446 33.6866C20.0917 33.5484 19.8619 33.3641 19.632 33.2258C19.4251 33.0415 19.1952 32.8802 18.9883 32.6498C17.9538 31.6359 17.2182 30.3226 16.7124 28.9171H15.2871C15.4251 29.3779 15.586 29.8387 15.7699 30.2995C16.0228 30.9217 16.2986 31.5207 16.6665 32.0968C17.0113 32.6728 17.4251 33.2258 17.9078 33.7097C18.1377 33.9631 18.3906 34.1935 18.6665 34.424C18.9423 34.6313 19.2182 34.8617 19.517 35.0461C20.0917 35.4147 20.7354 35.7143 21.3791 35.9447C22.6435 36.3825 24.0687 36.6359 25.517 36.4055C26.2297 36.2903 26.9423 36.0599 27.586 35.7143C28.2297 35.3687 28.8044 34.9078 29.3331 34.424C29.3976 34.3593 29.5026 34.4198 29.4755 34.5071C29.2016 35.3924 28.7228 36.1757 28.0228 36.7742C27.2182 37.4885 26.1607 37.9263 25.0113 38.2028C24.4596 38.318 23.9078 38.4101 23.3331 38.3871C23.0573 38.3871 22.7584 38.3641 22.4825 38.341C22.2067 38.2949 21.9308 38.2488 21.655 38.1797C19.4251 37.6037 17.471 36.0369 15.9078 34.1935C14.5745 32.5806 13.471 30.7834 12.6435 28.894H11.494C12.3216 31.0829 13.4481 33.1106 14.8963 34.9539C15.7009 35.9677 16.6205 36.9355 17.655 37.7419C18.1837 38.1567 18.7354 38.5253 19.3331 38.8479C19.9308 39.1705 20.5515 39.447 21.2182 39.6313C21.54 39.7465 21.8848 39.7926 22.2297 39.8617C22.5745 39.9078 22.9193 39.977 23.2642 39.977C23.9538 40.023 24.6665 39.9309 25.3331 39.8157C26.6435 39.5622 27.9998 39.0553 29.1262 38.1336C29.6779 37.6728 30.1837 37.1198 30.5745 36.4977C30.9653 35.8756 31.2412 35.1843 31.4251 34.4931C31.4419 34.4089 31.5598 34.4055 31.5795 34.4891C31.7892 35.382 31.7585 36.3039 31.471 37.1889C31.1262 38.2028 30.4366 39.1244 29.586 39.9309C29.1722 40.3226 28.7354 40.6682 28.2297 40.9447C27.9998 41.106 27.7239 41.1982 27.471 41.3364C27.1952 41.4286 26.9423 41.5438 26.6665 41.6129C24.4596 42.2581 21.9768 41.8664 19.7009 41.0599C17.4251 40.2074 15.2182 38.9631 13.3331 37.4194C12.8504 37.0276 12.4366 36.6129 11.9998 36.1521C11.7929 35.9217 11.586 35.6912 11.3791 35.4608C11.1722 35.2304 10.9653 35 10.7814 34.7465C9.99979 33.8018 9.33312 32.7419 8.71243 31.682C8.20668 30.7834 7.7699 29.8387 7.42507 28.871H6.73542C7.08025 29.9539 7.54002 31.0138 8.04576 32.0507C8.64346 33.1797 9.31013 34.2857 10.0917 35.2995C10.2756 35.553 10.4825 35.8065 10.6894 36.0599C10.8963 36.3134 11.1032 36.5668 11.3101 36.7972C11.7239 37.2811 12.2067 37.765 12.6665 38.1797C14.6205 39.8848 16.8274 41.2442 19.2412 42.212C20.4596 42.6728 21.7239 43.0645 23.0343 43.2258C23.7009 43.318 24.3676 43.3641 25.0343 43.318C25.7009 43.2949 26.3906 43.2028 27.0573 43.0415C27.4021 42.9724 27.7239 42.8341 28.0458 42.7419C28.3676 42.6037 28.6894 42.4885 28.9883 42.3041C29.609 41.9816 30.1837 41.5668 30.6894 41.129C31.7009 40.2304 32.6205 39.1244 33.1262 37.765C33.3791 37.0968 33.54 36.3594 33.563 35.6221C33.586 34.8848 33.4711 34.1705 33.2871 33.4793C33.2619 33.378 33.3609 33.3179 33.4324 33.394C34.0638 34.0658 34.5024 34.8764 34.6665 35.7604C34.8963 36.7972 34.7584 37.9493 34.4136 39.0783C34.2527 39.6313 34.0458 40.1613 33.7469 40.6452C33.609 40.8986 33.4481 41.129 33.2871 41.3594C33.1032 41.5668 32.9423 41.7972 32.7354 42.0046C31.1492 43.6636 28.8044 44.5853 26.4366 45.0461C24.0458 45.4839 21.54 45.53 19.1262 45.1382C18.5055 45.0461 17.9538 44.9078 17.3561 44.7235C17.0573 44.6313 16.7584 44.5392 16.4596 44.447C16.1607 44.3318 15.8848 44.2627 15.586 44.1244C14.4366 43.6866 13.3101 43.1336 12.2527 42.5115C10.1377 41.2442 8.20668 39.6083 6.66645 37.6728C5.10323 35.7373 3.90783 33.5023 2.98829 31.1751L2.3676 29.4009C2.32163 29.2166 2.27565 29.0553 2.22967 28.871H2.06875C2.11473 29.0553 2.16071 29.2627 2.20668 29.447L2.7814 31.2442C3.60898 33.6406 4.75841 35.9217 6.29864 37.9724C7.81588 40.023 9.74691 41.7742 11.8848 43.1567C12.9653 43.8249 14.0917 44.447 15.2871 44.9309C15.586 45.0691 15.8848 45.1613 16.1837 45.2765C16.4825 45.3917 16.7814 45.5069 17.0802 45.5991C17.6779 45.8065 18.3216 45.9908 18.9653 46.106C21.517 46.5899 24.1147 46.6359 26.6665 46.2673C27.9538 46.0599 29.2182 45.7373 30.4596 45.2304C31.0802 44.977 31.6779 44.6774 32.2297 44.3088C32.8044 43.9631 33.3561 43.5253 33.8389 43.0415C34.0917 42.8111 34.3216 42.5346 34.5285 42.2811C34.7354 42.0046 34.9653 41.7281 35.1262 41.4286C35.494 40.8525 35.7699 40.2074 35.9998 39.5392C36.4136 38.2488 36.6664 36.8433 36.4136 35.3917C36.2986 34.6774 36.0458 33.9631 35.7009 33.318C35.3561 32.6728 34.8963 32.0968 34.3906 31.5899C34.3276 31.5425 34.3934 31.4235 34.469 31.4458C35.3491 31.7048 36.1423 32.1807 36.7354 32.8571C37.4481 33.6636 37.9078 34.7235 38.1837 35.8525C38.3216 36.4055 38.3906 36.9585 38.3906 37.5346C38.4136 37.8111 38.3676 38.0876 38.3446 38.3871C38.2986 38.6636 38.2756 38.9401 38.1837 39.2396C37.632 41.4747 36.0917 43.4562 34.2756 45.0461C32.4366 46.6359 30.2756 47.9263 27.9998 48.8249C27.4251 49.0323 26.8733 49.2166 26.2527 49.3548C25.9538 49.424 25.655 49.4931 25.3561 49.5622C25.0573 49.6313 24.7584 49.7005 24.4596 49.7235C23.2412 49.9309 21.9998 50.023 20.7814 50.023C18.3216 50.0922 15.8619 49.6313 13.54 48.7327C11.2182 47.8571 9.05726 46.5438 7.10323 44.977L5.67795 43.7558C5.21818 43.318 4.7814 42.8571 4.34461 42.4194C4.11473 42.1889 3.90783 41.9816 3.67795 41.7512L3.08025 41.0369L1.83887 39.5853L3.01128 41.0599L3.60898 41.7972C3.81588 42.0276 4.04576 42.2581 4.25266 42.4885C4.68944 42.9493 5.10323 43.4101 5.54002 43.871L6.94232 45.1613C8.87335 46.7972 11.0113 48.2028 13.3561 49.1935C15.7009 50.1843 18.2297 50.7373 20.8044 50.8525C22.0688 50.8986 23.3791 50.8525 24.6435 50.6682C24.9653 50.6452 25.2871 50.576 25.586 50.53C25.9078 50.4839 26.2297 50.4147 26.5285 50.3456C27.1492 50.2304 27.7929 50.0461 28.4136 49.8387C30.8504 48.9862 33.1262 47.7189 35.1492 46.0829C36.1607 45.2535 37.1032 44.3318 37.9078 43.2719C38.2986 42.7419 38.6665 42.1889 38.9883 41.5668C39.3101 40.9677 39.563 40.3456 39.7469 39.6774C39.8389 39.3548 39.9078 39.0092 39.9768 38.6636C40.0228 38.318 40.0687 37.9723 40.0687 37.6267C40.0917 36.9355 40.0228 36.2212 39.8848 35.553C39.609 34.2396 39.1032 32.8802 38.1607 31.7512C37.7009 31.1982 37.1262 30.6912 36.5055 30.3226C35.8848 29.9539 35.1952 29.6774 34.5055 29.4931C34.4212 29.4762 34.4178 29.3578 34.5013 29.3377C35.3923 29.1234 36.3121 29.1358 37.1952 29.424C38.2067 29.7465 39.1492 30.4378 39.9538 31.2673C40.3446 31.682 40.7124 32.1198 40.9883 32.6037C41.1492 32.8341 41.2412 33.1106 41.3791 33.3641C41.471 33.6175 41.586 33.894 41.655 34.1705C42.3216 36.3825 41.9768 38.871 41.1952 41.1751C40.3906 43.4793 39.1952 45.6682 37.6779 47.6037C37.2871 48.0876 36.8963 48.5253 36.4366 48.9401C36.2297 49.1475 35.9998 49.3779 35.7699 49.5622C35.54 49.7696 35.3101 49.977 35.0573 50.1613C34.1147 50.9677 33.0802 51.659 32.0228 52.2811C29.8848 53.5023 27.517 54.3548 25.0573 54.7696C22.5975 55.1843 20.0917 55.1382 17.609 54.7696L15.7469 54.447C15.1492 54.3088 14.5285 54.1244 13.9308 53.9862C13.632 53.894 13.3331 53.8249 13.0343 53.7327L12.1377 53.4332L10.3676 52.8111L12.1147 53.5023L12.9883 53.8479C13.2871 53.9401 13.586 54.0323 13.8848 54.1244C14.4825 54.3088 15.0802 54.4931 15.7009 54.6544L17.54 55.0461C20.0228 55.5069 22.5975 55.6452 25.1032 55.2995C27.632 54.977 30.0917 54.1705 32.3676 52.9724C33.494 52.3502 34.5745 51.682 35.586 50.8756C35.8389 50.6912 36.0917 50.4839 36.3446 50.2765C36.5975 50.0691 36.8274 49.8618 37.0802 49.6544C37.563 49.2396 38.0228 48.7558 38.4596 48.2719C40.1377 46.2903 41.471 44.0553 42.3906 41.6359C42.8504 40.4147 43.1952 39.1475 43.3561 37.8111C43.4481 37.1429 43.471 36.4747 43.4481 35.8065C43.4251 35.1383 43.3331 34.447 43.1492 33.7788C43.0802 33.4332 42.9423 33.1106 42.8274 32.788C42.6894 32.4654 42.5515 32.1429 42.3906 31.8433C42.0687 31.2212 41.632 30.6682 41.1952 30.1613C40.2986 29.1705 39.1722 28.2488 37.8159 27.7419C37.1262 27.4885 36.4136 27.3502 35.6779 27.3502C34.9423 27.3502 34.2297 27.4654 33.54 27.6498C33.4579 27.6662 33.3961 27.5771 33.4562 27.5188C34.109 26.8857 34.917 26.4285 35.8159 26.2442C36.8504 26.0138 38.0228 26.129 39.1262 26.4516C39.6779 26.6129 40.2067 26.7972 40.6894 27.0968C40.9423 27.212 41.1722 27.3963 41.4021 27.5576C41.609 27.7419 41.8619 27.9032 42.0458 28.1106C43.7239 29.6774 44.6664 32.0276 45.1492 34.3779C45.609 36.7742 45.6779 39.2857 45.3331 41.7051C45.2412 42.3041 45.1262 42.8802 44.9423 43.4793C44.8504 43.7788 44.7584 44.0783 44.6664 44.3548C44.5745 44.6544 44.4825 44.9539 44.3676 45.2304C43.9538 46.4055 43.4251 47.5115 42.8044 48.5945C41.563 50.7373 39.9538 52.6728 38.0458 54.2627C36.1377 55.8525 33.9308 57.0968 31.609 58.0184L29.8389 58.6636C29.2412 58.8479 28.6435 59.0092 28.0228 59.1705C27.7239 59.2627 27.4251 59.3548 27.1262 59.424L26.2067 59.6083L24.2527 60L26.1147 59.7005L27.0573 59.5622C27.3561 59.4931 27.6779 59.424 27.9768 59.3548C28.5975 59.2166 29.1952 59.0783 29.8159 58.9171L31.609 58.318C33.9768 57.4424 36.2527 56.2903 38.2756 54.7235C40.2986 53.1567 42.0228 51.2212 43.3791 49.0553C44.0458 47.9493 44.6435 46.8203 45.1032 45.6221C45.2412 45.3226 45.3331 45.023 45.4481 44.7235C45.563 44.424 45.655 44.1244 45.7699 43.8018C45.9768 43.2028 46.1377 42.5576 46.2527 41.9124C46.7124 39.3548 46.7354 36.7512 46.3216 34.1705C46.0917 32.8802 45.7699 31.6129 45.2412 30.3917C44.9883 29.7926 44.6665 29.1705 44.2986 28.6175C43.9308 28.0415 43.517 27.5115 43.0113 27.0276C42.7814 26.7742 42.5055 26.5668 42.2527 26.3364C41.9768 26.129 41.7009 25.9217 41.4021 25.7604C40.8274 25.3917 40.1607 25.1152 39.517 24.9078C38.2297 24.4931 36.8044 24.2627 35.3791 24.5392C34.6665 24.6774 33.9538 24.9078 33.3331 25.2765C32.6894 25.6452 32.1377 26.106 31.632 26.6129C31.5621 26.683 31.4599 26.63 31.4873 26.5349C31.7417 25.6523 32.1983 24.8547 32.8733 24.2396C33.655 23.5023 34.7124 23.0415 35.8389 22.7419C36.3906 22.6037 36.9423 22.5115 37.517 22.5115C37.7929 22.4885 38.0687 22.5346 38.3676 22.5346C38.6435 22.5806 38.9193 22.6037 39.1952 22.6728C41.4481 23.1797 43.4251 24.7235 45.0343 26.5207C46.6435 28.341 47.9538 30.4839 48.8733 32.765C49.1032 33.341 49.2871 33.894 49.4251 34.5161C49.517 34.8157 49.586 35.1152 49.632 35.4147C49.7009 35.7143 49.7699 36.0138 49.8159 36.3364C50.0458 37.5576 50.1377 38.7788 50.1607 40.023C50.1607 42.4885 49.7469 44.977 48.8733 47.3272C48.0228 49.6774 46.7354 51.8433 45.1952 53.8249L43.9998 55.2765C43.563 55.7373 43.1262 56.1751 42.6894 56.6359C42.4596 56.8664 42.2527 57.0968 42.0228 57.3041L41.3101 57.9263L39.8848 59.1705L41.3561 57.9724L42.0917 57.3733C42.3216 57.1659 42.5515 56.9355 42.7814 56.7281C43.2412 56.2903 43.7009 55.8525 44.1377 55.4147L45.4021 53.9862C47.0113 52.0276 48.3906 49.8848 49.3561 47.5115C50.3216 45.1613 50.8504 42.6037 50.9193 40.0461C50.9423 38.7558 50.8963 37.4654 50.6894 36.1982C50.6664 35.8756 50.5975 35.553 50.5285 35.2535C50.4825 34.9309 50.4136 34.6313 50.3446 34.3088C50.2297 33.6866 50.0228 33.0415 49.8159 32.4194C48.9193 29.977 47.632 27.7189 45.9998 25.7143C45.1722 24.7235 44.2297 23.7788 43.1722 22.9954C42.6435 22.6037 42.0687 22.235 41.471 21.9355C40.8733 21.6359 40.2297 21.3825 39.563 21.1982C39.2412 21.106 38.8963 21.0599 38.5515 20.9908C38.2067 20.9677 37.8619 20.8986 37.517 20.9217C36.8274 20.8986 36.1147 20.9908 35.4481 21.129C34.1377 21.4286 32.8044 21.9355 31.6779 22.9032C31.1262 23.3641 30.6435 23.9401 30.2756 24.5853C29.9078 25.2074 29.655 25.8986 29.494 26.6129C29.4754 26.7061 29.3563 26.7109 29.3321 26.619C29.0976 25.7256 29.0914 24.8052 29.3791 23.9401C29.7009 22.9032 30.3676 21.9816 31.1952 21.1521C31.609 20.7604 32.0228 20.3917 32.5285 20.1152C32.7584 19.9539 33.0113 19.8387 33.2642 19.7235C33.54 19.6083 33.7929 19.4931 34.0687 19.424C36.2527 18.7327 38.7584 19.0553 41.0573 19.8157C43.3561 20.576 45.563 21.7742 47.494 23.2719C47.9768 23.6636 48.4136 24.0553 48.8504 24.4931C49.0802 24.7005 49.2871 24.9309 49.494 25.1613C49.7009 25.3917 49.9078 25.6221 50.1147 25.8525C50.9193 26.7972 51.632 27.8111 52.2756 28.871C53.517 30.9908 54.4136 33.3641 54.8274 35.8065C55.2641 38.2719 55.2412 40.7834 54.9193 43.2719L54.6205 45.1382C54.4825 45.7604 54.3216 46.3594 54.1607 46.9585C54.0917 47.2581 54.0228 47.5806 53.9308 47.8802L53.632 48.7788L53.0343 50.576L53.7009 48.8018L54.0228 47.9032C54.1147 47.6037 54.2067 47.3041 54.2756 47.0046C54.4596 46.4055 54.6435 45.7834 54.7814 45.1843L55.1492 43.318C55.586 40.7604 55.7009 38.1797 55.3331 35.6682Z" fill="url(#paint0_radial_531:2)" stroke="white" stroke-width="1.2" mask="url(#path-6-inside-2_531:2)"/>
<path d="M40.6938 10.6911C42.7169 10.8375 44.7228 11.2478 46.6181 11.9441C44.7088 11.3173 42.6966 10.9732 40.7009 10.8984L40.6953 10.8982L40.6953 10.8982C39.4472 10.8751 38.1918 10.921 36.9551 11.1072C36.7225 11.1247 36.4898 11.1661 36.28 11.2035C36.1896 11.2196 36.1034 11.2349 36.0233 11.2473C35.7134 11.2951 35.4055 11.3663 35.1102 11.4346C34.4982 11.5529 33.9104 11.7181 33.3239 11.9297C33.3238 11.9297 33.3236 11.9298 33.3235 11.9298L33.4253 12.212C31.9283 12.7479 30.4711 13.4632 29.1276 14.321L40.6938 10.6911ZM40.6938 10.6911C39.4172 10.6227 38.1505 10.6234 36.9116 10.7815L36.9033 10.7825L36.895 10.7831C36.5861 10.8052 36.2744 10.8497 35.9768 10.8956L35.9768 10.8956L35.9736 10.8961C35.6491 10.9425 35.3403 10.9869 35.0562 11.0527L35.0445 11.0554L35.0326 11.0571C34.4357 11.1458 33.7874 11.3243 33.1939 11.5073C31.7741 11.9672 30.419 12.5529 29.1276 13.2846V13.9661L40.6938 10.6911Z" fill="white" stroke="white" stroke-width="0.6"/>
<path d="M48.5386 17.7803C50.2224 18.7319 51.7836 19.905 53.1477 21.2793C51.8186 19.8604 50.2911 18.6259 48.6277 17.6077C47.5325 16.9675 46.4012 16.3787 45.2303 15.9499L45.2303 15.95L45.2256 15.9481C44.925 15.8322 44.6358 15.7209 44.3485 15.6323L44.3387 15.6293L44.329 15.6255C44.0425 15.5151 43.7535 15.4258 43.4348 15.3345L43.4269 15.3322L43.4191 15.3295C42.8453 15.1304 42.199 14.9956 41.5809 14.8808C39.0627 14.4719 36.4998 14.4721 33.9597 14.9038C32.6947 15.1304 31.454 15.4923 30.2596 16.0116C29.8571 16.1932 29.4572 16.3916 29.0588 16.6228V17.6655C30.5195 16.6228 32.2964 15.9598 34.0758 15.5821C36.4779 15.0679 39.018 14.9747 41.4878 15.3017L41.4878 15.3016L41.4925 15.3023C42.1213 15.3957 42.706 15.5127 43.3145 15.6767C43.6221 15.7481 43.9277 15.8424 44.2214 15.933L44.2265 15.9345L44.2335 15.9367C44.524 16.0263 44.8306 16.1208 45.117 16.2396C46.3087 16.6387 47.426 17.1762 48.5341 17.7778L48.5341 17.7778L48.5386 17.7803Z" fill="white" stroke="white" stroke-width="0.6"/>
</g>
<defs>
<radialGradient id="paint0_radial_531:2" cx="0" cy="0" r="1" gradientUnits="userSpaceOnUse" gradientTransform="translate(30.9176 30.989) scale(28.9443 36.7707)">
<stop offset="0.177083" stop-color="white"/>
<stop offset="1" stop-color="white"/>
</radialGradient>
<clipPath id="clip0_531:2">
<rect width="60" height="60" fill="white" transform="matrix(1 0 0 -1 0 60)"/>
</clipPath>
</defs>
</svg>
