<svg width="32" height="32" viewBox="0 0 32 32" fill="none" xmlns="http://www.w3.org/2000/svg">
<path d="M26.0565 20.1656C24.5074 18.6166 22.6636 17.4698 20.652 16.7757C22.8065 15.2917 24.222 12.8082 24.222 10C24.222 5.46628 20.5335 1.77778 15.9998 1.77778C11.4661 1.77778 7.77759 5.46628 7.77759 10C7.77759 12.8082 9.19309 15.2917 11.3477 16.7757C9.33603 17.4698 7.49225 18.6166 5.9432 20.1656C3.25698 22.8518 1.77759 26.4233 1.77759 30.2222H3.99981C3.99981 23.6054 9.38298 18.2222 15.9998 18.2222C22.6166 18.2222 27.9998 23.6054 27.9998 30.2222H30.222C30.222 26.4233 28.7426 22.8518 26.0565 20.1656ZM15.9998 16C12.6914 16 9.99981 13.3084 9.99981 10C9.99981 6.69156 12.6914 4 15.9998 4C19.3082 4 21.9998 6.69156 21.9998 10C21.9998 13.3084 19.3082 16 15.9998 16Z" fill="white"/>
</svg>
