<svg id="Layer_1" data-name="Layer 1" xmlns="http://www.w3.org/2000/svg" viewBox="0 0 257.73706 103.21192">
  <defs>
    <style>
      .cls-1 {
        fill: rgba(0,0,0,0);
      }

      .cls-2 {
        fill: none;
        stroke: #e20613;
        stroke-miterlimit: 10;
        stroke-width: 2.48408px;
      }

      .cls-3 {
        fill: #e20613;
      }
    </style>
  </defs>
  <title>try-me</title>
  <g>
    <path class="cls-1" d="M110.003,85.57289a208.5726,208.5726,0,0,0,73.03517-15.33951c11.61015-4.76852,26.41-10.98539,42.28875-24.281A139.60448,139.60448,0,0,0,261,.13329" transform="translate(-3.26709 -0.13329)"/>
    <g>
      <path class="cls-2" d="M110.003,85.57289a208.5726,208.5726,0,0,0,73.03517-15.33951c11.61017-4.76852,26.41-10.98539,42.28876-24.281a137.47074,137.47074,0,0,0,24.52575-26.841" transform="translate(-3.26709 -0.13329)"/>
      <polygon class="cls-3" points="250.095 26.813 257.737 0.002 237.71 19.4 250.095 26.813"/>
    </g>
  </g>
  <g>
    <path class="cls-3" d="M14.75586,69.34473a61.53281,61.53281,0,0,0-7.19971,1.5332,3.48118,3.48118,0,0,1-1.08691.25195.92427.92427,0,0,1-.75684-.40722.823.823,0,0,1-.19385-.54346q0-.83422,1.20313-1.22266a73.19943,73.19943,0,0,1,7.58789-1.78564,59.13145,59.13145,0,0,1,10.51856-.98975,7.89493,7.89493,0,0,1,2.29.21387.73094.73094,0,0,1,.54346.7373q0,.9126-1.33887,1.06739-1.16454.11644-3.51269.1748a36.56146,36.56146,0,0,0-6.4043.582.644.644,0,0,1,.48487.60157A2.91284,2.91284,0,0,1,16.27,70.897,98.59046,98.59046,0,0,0,9.2251,83.14307a58.92943,58.92943,0,0,0-3.74561,9.2373q-.27173,1.22315-.93164,1.22266a1.18708,1.18708,0,0,1-1.00879-.6211,1.51027,1.51027,0,0,1-.272-.85351q0-1.78565,3.39648-8.69434,2.1731-4.44433,4.01709-7.49121.73755-1.24146,3.55127-5.76367Z" transform="translate(-3.26709 -0.13329)"/>
    <path class="cls-3" d="M20.811,85.04492a37.90624,37.90624,0,0,1,4.38623-3.97851,18.20038,18.20038,0,0,1,1.90185-1.3003,1.99363,1.99363,0,0,1,.64014-.291q.29149,0,.58252.42676a.73651.73651,0,0,1,.1748.42724q0,.34937-.73779.95069-1.979,1.57177-1.97949,2.36767,0,.44678.50488.44629a6.63923,6.63923,0,0,0,2.87207-1.37793,1.13136,1.13136,0,0,1,.582-.23291.44938.44938,0,0,1,.31055.15527.51973.51973,0,0,1,.1748.36866q0,.58227-1.63037,1.78564a5.48578,5.48578,0,0,1-3.24072,1.28076,2.1072,2.1072,0,0,1-1.145-.32959,1.04234,1.04234,0,0,1-.44629-.9707,2.08868,2.08868,0,0,1,.40723-1.106,19.201,19.201,0,0,0-3.60938,3.72608,26.98082,26.98082,0,0,0-2.3872,4.01709q-.44606.89281-1.106.89257-.71778,0-.71826-.67919a15.35923,15.35923,0,0,1,1.12548-3.53174,26.88676,26.88676,0,0,1,3.49317-6.61768q1.12573-1.456,1.88281-1.45557a.77628.77628,0,0,1,.46582.15528.58984.58984,0,0,1,.252.48486,1.59177,1.59177,0,0,1-.38818.81543q-.07764.09668-1.02832,1.29981A10.206,10.206,0,0,0,20.811,85.04492Z" transform="translate(-3.26709 -0.13329)"/>
    <path class="cls-3" d="M36.39453,85.99561Q34.66748,88.0332,33.63867,89.023q-2.0376,1.94091-3.396,1.94092a1.27141,1.27141,0,0,1-1.04786-.48535,1.56874,1.56874,0,0,1-.291-.97022q0-2.09619,2.48389-5.56982,2.52246-3.53175,3.64843-3.53174a.834.834,0,0,1,.75684.77588,1.27728,1.27728,0,0,1-.22315.74756,17.9317,17.9317,0,0,1-1.271,1.42627,20.03618,20.03618,0,0,0-2.0376,2.48388,4.75577,4.75577,0,0,0-1.06738,2.2124q0,.408.38769.40772.77637,0,2.91114-2.11524,1.33959-1.33959,2.09619-2.25146.15526-.19336,1.3584-1.84375,1.08691-1.45531,1.33886-1.72705a1.56436,1.56436,0,0,1,1.08692-.6792.75737.75737,0,0,1,.563.27148.83435.83435,0,0,1,.23291.58252,4.60847,4.60847,0,0,1-.77637,1.88233q-.93165,1.61133-1.708,3.0083a30.4779,30.4779,0,0,0-1.88232,3.88135,10.62588,10.62588,0,0,0,2.2705-1.76612A11.14754,11.14754,0,0,0,41.20752,85.103q.36841-.77637.75684-.77637a.48035.48035,0,0,1,.54345.54346q0,1.029-1.74658,3.0664a18.69811,18.69811,0,0,1-5.16211,4.15284,61.71146,61.71146,0,0,1-3.08594,6.50146q-2.71728,4.75415-5.60839,4.75439a2.29972,2.29972,0,0,1-1.90186-.9121,2.72486,2.72486,0,0,1-.563-1.76563q0-3.02783,4.25-6.19092a37.4592,37.4592,0,0,1,3.6875-2.3291q.98951-.5625,1.55274-.91211.34936-.89208,1.06738-2.36719Q35.793,87.27662,36.39453,85.99561Zm-3.5708,7.62695a19.86947,19.86947,0,0,0-4.21143,2.98877q-2.17309,1.99878-2.17334,3.72607a.94931.94931,0,0,0,.97022.97022q1.45605,0,3.22168-3.04688.29078-.50463,1.59131-3.35742Q32.4939,94.32105,32.82373,93.62256Z" transform="translate(-3.26709 -0.13329)"/>
    <path class="cls-3" d="M56.1123,84.96729a27.82623,27.82623,0,0,1,2.87208-2.67823,6.0914,6.0914,0,0,1,2.52294-1.45556.74479.74479,0,0,1,.54346.23291.65072.65072,0,0,1,.21338.46582,2.49813,2.49813,0,0,1-.6792,1.20312,10.87683,10.87683,0,0,0-1.45557,2.251q4.541-4.56006,6.21045-4.56055a.90043.90043,0,0,1,.60157.21387.73415.73415,0,0,1,.27148.582,2.34589,2.34589,0,0,1-.83447,1.39746q-3.668,3.78369-3.668,6.21a2.25049,2.25049,0,0,0,.34961,1.41651l.50439.64062a.64611.64611,0,0,1,.15528.44629.84608.84608,0,0,1-.25244.58252.88371.88371,0,0,1-.65967.31006,1.4897,1.4897,0,0,1-1.1836-.81494,3.97345,3.97345,0,0,1-.66015-2.29,7.27432,7.27432,0,0,1,1.00927-3.5708,14.536,14.536,0,0,1,1.16456-1.708,18.71,18.71,0,0,0-3.35743,3.416,19.95354,19.95354,0,0,0-2.09619,3.29883q-.44678.87378-1.04785.87354-.65991,0-.65967-.73731A11.04529,11.04529,0,0,1,57.063,87.4126a30.00771,30.00771,0,0,1,1.5332-2.98877,15.49723,15.49723,0,0,0-4.9873,6.94775q-.408.97046-1.08692.97022a.62612.62612,0,0,1-.50439-.23291.80208.80208,0,0,1-.21338-.563A13.06067,13.06067,0,0,1,53.085,87.4126a34.106,34.106,0,0,1,3.02734-5.68653Q57.27686,79.96021,57.917,79.96q.58228,0,.58252.62109a4.13754,4.13754,0,0,1-.71826,1.3584A23.75572,23.75572,0,0,0,56.1123,84.96729Z" transform="translate(-3.26709 -0.13329)"/>
    <path class="cls-3" d="M68.39648,87.70361v.34912a1.26868,1.26868,0,0,0,.21338.7378,1.78,1.78,0,0,0,1.59131.71777q2.42578,0,5.60889-3.72607.5625-.64014.95068-.64063a.56243.56243,0,0,1,.5044.50488q0,.7566-1.8628,2.56153a14.0148,14.0148,0,0,1-3.105,2.30957,6.50422,6.50422,0,0,1-3.0664.89258,2.81217,2.81217,0,0,1-2.29-1.00928,2.94789,2.94789,0,0,1-.563-1.90186q0-3.279,3.08594-6.42334,2.50341-2.562,4.3667-2.562a1.47233,1.47233,0,0,1,.91211.31055,1.30826,1.30826,0,0,1,.50439,1.06738,5.00243,5.00243,0,0,1-.95117,2.523A10.11445,10.11445,0,0,1,68.39648,87.70361Zm.42676-1.51367A7.799,7.799,0,0,0,70.958,85.1416a8.6089,8.6089,0,0,0,2.15429-2.36767,1.6205,1.6205,0,0,0,.291-.83448q0-.38745-.36865-.38769a2.72114,2.72114,0,0,0-1.436.75683A9.93513,9.93513,0,0,0,68.82324,86.18994Z" transform="translate(-3.26709 -0.13329)"/>
    <path class="cls-3" d="M79.82715,90.0127a.87188.87188,0,0,1,.71826.38818,1.02369,1.02369,0,0,1,.19385.64062,4.30788,4.30788,0,0,1-.5044,1.92139,1.56874,1.56874,0,0,1-1.37793,1.06738q-.89282,0-.89306-1.00927a4.027,4.027,0,0,1,.62109-2.05713Q79.14819,90.01319,79.82715,90.0127ZM92.44141,66.95752a.7482.7482,0,0,1,.66015.34961,1.16533,1.16533,0,0,1,.19385.65967,8.34639,8.34639,0,0,1-1.16406,2.98877q-4.77466,8.94653-8.6167,14.94287-.62183.99023-.77637,1.31982-.50537.95142-1.04785.95117a.82188.82188,0,0,1-.67969-.44629,1.38325,1.38325,0,0,1-.25195-.79589,3.37766,3.37766,0,0,1,.5625-1.51368q.15526-.27173,1.35889-2.11523,1.53222-2.581,3.04687-5.104.50391-.87378,3.02734-5.51172.89209-1.63038,1.41651-2.56153.62109-1.10668,1.18408-2.29Q91.78125,66.95729,92.44141,66.95752Z" transform="translate(-3.26709 -0.13329)"/>
  </g>
</svg>
