<?xml version="1.0" standalone="no"?>
<!DOCTYPE svg PUBLIC "-//W3C//DTD SVG 20010904//EN"
 "http://www.w3.org/TR/2001/REC-SVG-20010904/DTD/svg10.dtd">
<svg version="1.0" xmlns="http://www.w3.org/2000/svg"
 width="700.000000pt" height="700.000000pt" viewBox="0 0 700.000000 700.000000"
 preserveAspectRatio="xMidYMid meet">
<metadata>
Created by potrace 1.14, written by Peter Selinger 2001-2017
</metadata>
<g transform="translate(0.000000,700.000000) scale(0.100000,-0.100000)"
fill="#000000" stroke="none">
<path d="M1578 5419 c-868 -870 -1578 -1588 -1578 -1594 0 -7 6 -17 12 -23 16
-12 3159 -14 3179 -2 10 7 12 325 12 1593 0 871 -3 1589 -7 1595 -4 7 -15 12
-24 12 -9 0 -727 -711 -1594 -1581z"/>
<path d="M4149 6836 c-2 -2 -26 -6 -54 -9 -216 -24 -726 -170 -731 -209 -3
-25 13 -23 92 11 122 51 305 107 489 151 220 51 244 58 224 59 -9 1 -18 -1
-20 -3z"/>
<path d="M3935 6264 c-207 -51 -563 -195 -566 -229 -1 -8 -1 -26 -1 -40 0 -55
-1 -55 85 -8 98 55 184 94 292 135 99 37 226 78 242 78 6 0 23 4 37 9 21 9 23
14 17 38 -9 34 -26 37 -106 17z"/>
<path d="M4359 5786 c-2 -2 -35 -7 -74 -10 -38 -4 -77 -9 -85 -11 -8 -2 -33
-6 -54 -10 -21 -3 -48 -7 -60 -10 -12 -3 -32 -7 -46 -9 -148 -25 -441 -135
-610 -228 l-65 -36 -1 -71 c-1 -42 3 -71 9 -71 6 0 18 -7 28 -16 16 -14 38 -9
261 61 364 115 737 231 883 277 104 33 144 40 203 40 176 -2 408 -39 599 -95
l82 -24 11 30 c11 34 6 41 -45 56 -207 62 -303 85 -440 106 -16 3 -46 8 -65
11 -42 7 -525 16 -531 10z"/>
<path d="M4368 5335 c-2 -1 -57 -5 -123 -9 -66 -3 -133 -8 -150 -10 -16 -3
-61 -10 -100 -15 -129 -20 -210 -39 -310 -73 -84 -28 -216 -85 -277 -118 l-53
-29 0 -100 c0 -56 2 -101 6 -101 3 0 37 21 75 46 195 131 460 220 764 257 145
18 462 19 600 1 331 -42 701 -186 1009 -392 69 -46 128 -86 131 -90 3 -4 37
-33 75 -64 39 -31 88 -75 110 -97 44 -46 55 -49 80 -21 17 19 17 21 -1 42 -10
13 -28 31 -39 41 -11 10 -45 42 -75 71 -165 158 -411 323 -644 431 -166 78
-452 172 -571 190 -39 5 -67 10 -130 20 -48 8 -371 25 -377 20z"/>
<path d="M4090 4944 c-195 -24 -304 -63 -457 -162 -76 -49 -226 -187 -260
-239 -12 -18 -15 -86 -15 -390 -1 -392 -3 -409 -51 -461 -40 -43 -86 -59 -176
-61 -63 -2 -88 -6 -96 -18 -10 -14 -15 -14 -43 1 -26 14 -59 16 -183 14 l-151
-3 69 -71 c95 -100 184 -154 358 -219 19 -7 19 -8 -5 -17 -14 -5 -66 -10 -116
-10 -93 -1 -182 20 -263 62 -81 41 -188 130 -266 221 l-30 35 -108 0 c-105 1
-107 0 -101 -20 8 -27 33 -63 101 -149 141 -176 320 -299 508 -348 90 -23 249
-28 325 -10 53 12 90 14 90 4 -1 -9 -110 -84 -157 -107 -119 -59 -308 -63
-491 -10 -271 79 -482 284 -601 584 l-22 56 -79 0 c-57 0 -80 -3 -80 -12 0
-19 57 -170 92 -244 102 -214 285 -408 478 -505 215 -109 475 -148 670 -101
131 32 303 126 374 205 25 27 37 18 26 -20 -25 -85 -113 -205 -200 -271 -177
-134 -485 -189 -715 -129 -233 62 -483 245 -700 512 -93 115 -242 356 -306
497 l-34 72 -67 0 -68 0 11 -27 c29 -76 131 -289 188 -389 80 -145 239 -352
369 -481 256 -255 522 -383 823 -397 190 -9 441 61 601 167 143 95 265 254
313 407 32 102 47 89 51 -44 5 -151 -39 -282 -137 -406 -127 -161 -272 -261
-456 -316 -120 -36 -348 -43 -498 -15 -416 77 -881 325 -1177 627 -137 141
-295 344 -364 469 -7 11 -35 60 -63 110 -28 49 -70 136 -93 192 l-42 103 -38
0 c-21 0 -38 -3 -38 -7 0 -17 47 -138 96 -246 43 -98 114 -229 177 -331 105
-170 327 -431 452 -531 28 -22 52 -43 55 -46 13 -16 170 -126 255 -179 89 -57
280 -157 370 -195 109 -45 313 -109 390 -121 22 -3 42 -7 46 -9 10 -7 154 -19
219 -19 323 0 566 94 778 302 188 185 292 410 287 622 -2 70 -14 167 -25 195
-5 12 -5 27 0 34 14 24 110 -120 138 -209 52 -163 23 -404 -70 -590 -36 -70
-106 -169 -153 -215 -255 -249 -692 -386 -1210 -379 -240 3 -378 22 -576 80
-418 121 -800 351 -1100 660 -272 282 -487 655 -634 1102 -15 45 -31 82 -36
82 -12 0 -12 0 17 -93 117 -365 202 -558 356 -802 391 -617 1039 -1038 1758
-1140 132 -19 392 -25 550 -12 450 35 825 187 1043 422 189 204 291 477 282
755 -6 190 -65 345 -187 490 -33 40 -57 74 -54 78 11 10 119 -40 181 -84 78
-54 125 -110 174 -204 72 -140 102 -253 106 -400 3 -111 -9 -189 -46 -300
-114 -343 -468 -694 -944 -935 -276 -140 -506 -202 -868 -233 -122 -11 -405
-7 -507 7 -434 60 -835 234 -1230 534 -36 27 -67 52 -70 56 -3 3 -34 30 -70
60 -72 60 -295 282 -378 376 l-53 60 51 -65 c151 -190 373 -409 580 -573 338
-268 775 -463 1180 -527 41 -6 85 -13 98 -15 106 -17 466 -24 539 -10 15 2 60
7 98 11 39 3 73 8 76 10 3 1 28 6 55 9 94 12 290 66 408 111 437 170 825 454
1051 770 76 105 155 260 184 359 19 67 23 83 38 165 29 161 -11 404 -97 594
-92 206 -256 356 -472 431 -71 25 -98 44 -65 46 6 0 21 3 32 5 44 10 173 7
225 -6 155 -36 323 -155 445 -315 72 -95 135 -250 153 -380 13 -95 6 -336 -12
-425 -83 -404 -329 -876 -596 -1140 -407 -404 -911 -654 -1460 -725 -165 -22
-536 -22 -648 0 -9 1 -39 6 -67 9 -181 23 -473 89 -628 142 -39 13 -72 22 -74
21 -12 -13 388 -139 512 -161 17 -3 41 -8 55 -11 117 -26 292 -52 403 -61 68
-6 396 -6 422 0 11 2 56 7 100 11 44 4 82 8 85 10 3 2 26 6 50 10 149 22 410
100 576 173 380 168 756 456 973 746 241 322 405 680 467 1021 22 122 27 348
9 450 -42 240 -122 395 -297 574 -222 227 -487 318 -761 263 -48 -10 -90 -15
-92 -12 -8 13 57 64 140 110 163 92 474 72 685 -43 87 -47 110 -65 192 -147
84 -84 168 -206 218 -315 70 -152 136 -396 154 -570 4 -33 9 -80 12 -105 12
-103 5 -425 -11 -530 -2 -14 -7 -45 -10 -70 -15 -109 -96 -371 -157 -510 -83
-187 -158 -319 -269 -475 -179 -250 -397 -459 -657 -629 -69 -45 -299 -176
-309 -176 -2 0 -35 -14 -71 -31 -148 -69 -322 -130 -522 -185 -74 -20 -146
-38 -160 -40 -14 -3 -39 -9 -55 -14 -76 -23 70 0 220 35 400 93 774 256 1075
469 287 202 541 482 719 790 52 89 143 275 156 317 4 13 11 29 15 34 4 6 13
28 19 50 7 22 16 49 21 60 47 106 102 360 117 537 15 176 8 464 -16 623 -59
389 -189 676 -401 885 -147 145 -316 234 -530 278 -285 58 -528 -2 -736 -184
-34 -29 -64 -51 -67 -47 -8 8 25 93 59 150 80 137 241 246 440 298 376 98 751
-62 1102 -470 205 -239 389 -564 467 -825 37 -122 76 -322 92 -467 10 -85 10
-437 1 -518 -26 -226 -61 -373 -148 -618 -65 -184 -261 -532 -387 -687 -6 -8
-28 -35 -48 -60 -20 -25 -53 -65 -73 -90 -64 -79 -213 -231 -377 -385 -22 -20
3 -2 55 41 93 78 308 286 384 374 226 259 410 556 527 851 37 93 101 301 113
366 3 16 11 64 19 108 25 133 32 231 32 435 0 231 -6 301 -39 480 -41 214 -64
296 -131 455 -151 361 -411 728 -655 924 -24 20 -52 43 -62 51 -40 35 -194
125 -275 160 -152 65 -246 84 -413 84 -126 0 -159 -4 -253 -28 -349 -89 -565
-282 -652 -579 -9 -31 -20 -57 -25 -57 -13 0 -28 110 -25 185 7 152 92 316
238 458 181 175 389 249 681 242 304 -8 680 -138 1014 -349 166 -105 242 -167
386 -311 377 -378 621 -878 691 -1417 23 -177 23 -538 0 -679 -2 -13 -6 -46
-10 -74 -16 -132 -66 -359 -121 -552 -3 -13 -4 -23 0 -23 3 0 15 33 27 73 11
39 31 108 44 152 44 147 93 410 113 600 9 90 9 473 0 545 -26 199 -37 256 -91
460 -48 181 -190 486 -311 666 -40 61 -81 120 -89 130 -9 10 -37 46 -64 79
-174 219 -386 403 -635 551 -252 149 -551 268 -758 300 -19 3 -42 7 -50 9 -67
19 -265 23 -380 9z"/>
<path d="M280 2296 c0 -2 8 -10 18 -17 15 -13 16 -12 3 4 -13 16 -21 21 -21
13z"/>
<path d="M6262 1323 c-15 -48 -8 -55 8 -8 7 20 10 38 8 41 -3 2 -10 -13 -16
-33z"/>
<path d="M1350 780 c8 -5 22 -9 30 -9 10 0 8 3 -5 9 -27 12 -43 12 -25 0z"/>
<path d="M3013 33 c9 -2 23 -2 30 0 6 3 -1 5 -18 5 -16 0 -22 -2 -12 -5z"/>
</g>
</svg>
